<svg xmlns="http://www.w3.org/2000/svg" width="31.074" height="21.849" viewBox="0 0 31.074 21.849">
  <g id="email" transform="translate(0 -76)">
    <g id="Group_8" data-name="Group 8" transform="translate(1.592 88.214)">
      <g id="Group_7" data-name="Group 7" transform="translate(0 0)">
        <path id="Path_57" data-name="Path 57" d="M44.769,277.251l-2.6,2.611a2.881,2.881,0,0,1-3.99,0l-2.6-2.611-9.347,9.378a2.7,2.7,0,0,0,1.139.257H52.977a2.7,2.7,0,0,0,1.139-.257Z" transform="translate(-26.226 -277.251)" fill="#fff"/>
      </g>
    </g>
    <g id="Group_10" data-name="Group 10" transform="translate(1.592 76)">
      <g id="Group_9" data-name="Group 9" transform="translate(0 0)">
        <path id="Path_58" data-name="Path 58" d="M52.979,76H27.367a2.7,2.7,0,0,0-1.139.257l9.988,10.022h0v0l3.248,3.259a1.093,1.093,0,0,0,1.412,0l3.247-3.258v0h0l9.988-10.022A2.7,2.7,0,0,0,52.979,76Z" transform="translate(-26.228 -76)" fill="#fff"/>
      </g>
    </g>
    <g id="Group_12" data-name="Group 12" transform="translate(0 77.53)">
      <g id="Group_11" data-name="Group 11" transform="translate(0 0)">
        <path id="Path_59" data-name="Path 59" d="M.29,101.212a2.7,2.7,0,0,0-.29,1.2V118.8A2.7,2.7,0,0,0,.29,120l9.364-9.394Z" transform="translate(0 -101.212)" fill="#fff"/>
      </g>
    </g>
    <g id="Group_14" data-name="Group 14" transform="translate(21.42 77.53)">
      <g id="Group_13" data-name="Group 13" transform="translate(0 0)">
        <path id="Path_60" data-name="Path 60" d="M362.3,101.21l-9.363,9.395L362.3,120a2.7,2.7,0,0,0,.29-1.2V102.411A2.7,2.7,0,0,0,362.3,101.21Z" transform="translate(-352.933 -101.21)" fill="#fff"/>
      </g>
    </g>
  </g>
</svg>
