<svg xmlns="http://www.w3.org/2000/svg" width="28.457" height="30.533" viewBox="0 0 28.457 30.533">
  <g id="phone-receiver-silhouette" transform="translate(-0.872 0)">
    <path id="Path_61" data-name="Path 61" d="M26.142,21.252c-1.845-1.578-3.716-2.533-5.538-.958l-1.088.952c-.8.691-2.276,3.92-8-2.662S9.2,10.986,10,10.3l1.094-.953c1.812-1.579,1.128-3.566-.179-5.612L10.125,2.5C8.811.455,7.382-.885,5.564.691l-.982.858A9.217,9.217,0,0,0,.99,7.649c-.655,4.335,1.412,9.3,6.148,14.746S16.5,30.58,20.888,30.533a9.241,9.241,0,0,0,6.537-2.707l.985-.859c1.812-1.575.686-3.179-1.159-4.76Z" fill="#fff"/>
  </g>
</svg>
