<svg id="Group_20" data-name="Group 20" xmlns="http://www.w3.org/2000/svg" xmlns:xlink="http://www.w3.org/1999/xlink" width="335" height="271.976" viewBox="0 0 335 271.976">
  <defs>
    <clipPath id="clip-path">
      <rect id="Rectangle_25" data-name="Rectangle 25" width="335" height="271.976" fill="none"/>
    </clipPath>
  </defs>
  <g id="Group_19" data-name="Group 19" clip-path="url(#clip-path)">
    <path id="Path_73" data-name="Path 73" d="M127.1,261.263c-.427,0-.492.127-.492.489v27.71c0,.363.126.512.511.512h1.133a1.061,1.061,0,0,0,1.11-1.092V276.515h2.372v12.366a1.061,1.061,0,0,0,1.11,1.092h1.133c.385,0,.511-.149.511-.512v-27.71c0-.363-.065-.489-.492-.489H132.8a1.045,1.045,0,0,0-1.068,1.068v11.876h-2.372V262.331a1.056,1.056,0,0,0-1.069-1.068Z" transform="translate(-33.876 -69.905)" fill="#fff"/>
    <path id="Path_74" data-name="Path 74" d="M158.922,261.263a1.062,1.062,0,0,0-1.091,1.068v27.025c0,.427.191.618.6.618h1.537c.427,0,.618-.191.618-.618v-27.6c0-.363-.061-.489-.489-.489Z" transform="translate(-42.23 -69.905)" fill="#fff"/>
    <path id="Path_75" data-name="Path 75" d="M183.723,289.974a1.071,1.071,0,0,0,1.088-1.046V278.076h1.217a1.088,1.088,0,0,1,1.24,1.087v9.766a1.069,1.069,0,0,0,1.068,1.046h1.175c.408,0,.515-.13.515-.511V279.143a2.122,2.122,0,0,0-1.346-2.159,3,3,0,0,0,1.346-2.777V264.7c0-1.751-1.239-3.437-3.952-3.437h-3.524c-.408,0-.492.125-.492.511v27.688c0,.381.084.511.492.511Zm2.3-26.341a1.1,1.1,0,0,1,1.24,1.091v9.441c0,.725-.256,1.537-1.133,1.537h-1.323v-12.07Z" transform="translate(-48.712 -69.905)" fill="#fff"/>
    <path id="Path_76" data-name="Path 76" d="M213.77,279.925c-.32,0-.469.13-.469.427V286.8c0,1.945,1.5,3.418,3.971,3.418s4-1.472,4-3.418c0-9.827-5.234-14.74-5.234-22.6a1.248,1.248,0,0,1,2.476,0v6.15c0,.6.6.836,1.026.836h1.24c.32,0,.492-.149.492-.427V264.1c0-1.923-1.561-3.418-4.04-3.418-2.415,0-3.952,1.5-3.952,3.418,0,9.4,5.234,14.16,5.234,22.621,0,.557-.385,1.068-1.24,1.068a1.076,1.076,0,0,1-1.217-1.068v-5.982c0-.576-.618-.812-1.026-.812Z" transform="translate(-57.066 -69.749)" fill="#fff"/>
    <path id="Path_77" data-name="Path 77" d="M252.617,277.724c0-.256-.149-.4-.492-.4h-1.24c-.4,0-1.026.237-1.026.812v8.587a1.061,1.061,0,0,1-1.217,1.069c-.855,0-1.24-.511-1.24-1.069V264.205a1.106,1.106,0,0,1,1.221-1.091,1.13,1.13,0,0,1,1.259,1.091v8.606c0,.579.6.812,1.026.812h1.239c.321,0,.469-.149.469-.427v-9.1c0-1.9-1.518-3.4-3.952-3.418-2.457,0-4.017,1.5-4.017,3.418V286.8c0,1.945,1.518,3.418,3.952,3.418,2.457,0,4.017-1.472,4.017-3.418Z" transform="translate(-65.459 -69.749)" fill="#fff"/>
    <path id="Path_78" data-name="Path 78" d="M276.481,261.263c-.427,0-.492.127-.492.489v27.71c0,.363.126.512.511.512h1.133a1.061,1.061,0,0,0,1.11-1.092V276.515h2.372v12.366a1.061,1.061,0,0,0,1.11,1.092h1.133c.385,0,.511-.149.511-.512v-27.71c0-.363-.065-.489-.492-.489h-1.195a1.045,1.045,0,0,0-1.068,1.068v11.876h-2.372V262.331a1.056,1.056,0,0,0-1.069-1.068Z" transform="translate(-73.845 -69.905)" fill="#fff"/>
    <path id="Path_79" data-name="Path 79" d="M307.155,289.462c0,.363.084.512.492.512h5.4c.32,0,.492-.191.492-.557v-.405c0-.937-.447-1.411-1.259-1.411h-2.373V262.308a1.068,1.068,0,0,0-1.087-1.045h-1.175c-.408,0-.492.127-.492.512Z" transform="translate(-82.184 -69.905)" fill="#fff"/>
    <path id="Path_80" data-name="Path 80" d="M340.7,263.633c.79,0,1.259-.492,1.259-1.408v-.408c0-.363-.168-.553-.489-.553h-5.405c-.408,0-.492.125-.492.511v27.688c0,.4.084.511.618.511h5.279c.321,0,.489-.191.489-.557v-.4c0-.938-.469-1.411-1.259-1.411h-2.373V276.943H340.3c.79,0,1.259-.492,1.259-1.411V275.1c0-.339-.172-.534-.492-.534h-2.736V263.633Z" transform="translate(-89.788 -69.905)" fill="#fff"/>
    <path id="Path_81" data-name="Path 81" d="M365.5,261.263a1.061,1.061,0,0,0-1.091,1.068v27.025c0,.427.191.618.6.618h1.537c.427,0,.618-.191.618-.618v-27.6c0-.363-.061-.489-.489-.489Z" transform="translate(-97.503 -69.905)" fill="#fff"/>
    <path id="Path_82" data-name="Path 82" d="M388.131,261.263c-.32,0-.492.19-.492.554v.408c0,.938.473,1.407,1.263,1.407h1.366v25.743c0,.428.149.6.576.6h1.583c.4,0,.6-.171.6-.6V263.632h1.259c.79,0,1.259-.469,1.259-1.407v-.408c0-.363-.168-.554-.489-.554Z" transform="translate(-103.718 -69.905)" fill="#fff"/>
    <path id="Path_83" data-name="Path 83" d="M422.971,263.633c.789,0,1.259-.492,1.259-1.408v-.408c0-.363-.168-.553-.489-.553h-5.4c-.409,0-.492.125-.492.511v27.688c0,.4.083.511.618.511h5.279c.321,0,.489-.191.489-.557v-.4c0-.938-.47-1.411-1.259-1.411H420.6V276.943h1.97c.789,0,1.258-.492,1.258-1.411V275.1c0-.339-.172-.534-.491-.534H420.6V263.633Z" transform="translate(-111.8 -69.905)" fill="#fff"/>
    <path id="Path_84" data-name="Path 84" d="M448.262,289.973a1.048,1.048,0,0,0,1.11-1.091l-.385-16.663,2.758,16.816a1.107,1.107,0,0,0,1.11.938h1.133c.385,0,.511-.149.511-.511v-27.71c0-.363-.065-.489-.492-.489h-1.194a1.032,1.032,0,0,0-1.069,1.068l.385,16.663-2.777-16.815a1.058,1.058,0,0,0-1.05-.916H447.11c-.427,0-.492.126-.492.489v27.71c0,.363.126.511.511.511Z" transform="translate(-119.499 -69.905)" fill="#fff"/>
    <path id="Path_85" data-name="Path 85" d="M126.849,330.464c0,.183.042.245.233.245h1.641a1.693,1.693,0,0,0,1.923-1.637v-3.956a1.626,1.626,0,0,0-.481-1.373,1.786,1.786,0,0,0,.481-1.484v-3.582a1.675,1.675,0,0,0-1.885-1.637h-1.679c-.19,0-.233.062-.233.245Zm1.942-6.172c.519,0,.542.489.542.832v3.937a.524.524,0,0,1-.591.519h-.58v-5.287Zm-.629-6.122h.58a.523.523,0,0,1,.591.519v3.681c0,.347-.023.832-.542.832h-.629Z" transform="translate(-33.94 -84.829)" fill="#fff"/>
    <path id="Path_86" data-name="Path 86" d="M140.18,317.041a.5.5,0,0,0-.519.508v12.867c0,.2.092.294.286.294h.732c.2,0,.294-.092.294-.294V317.274c0-.172-.03-.233-.232-.233Z" transform="translate(-37.368 -84.829)" fill="#fff"/>
    <path id="Path_87" data-name="Path 87" d="M149.086,329.185a1.923,1.923,0,0,0,3.8,0V318.4a1.925,1.925,0,0,0-3.8,0Zm1.313-10.743c0-.263.171-.515.591-.515a.521.521,0,0,1,.587.515v10.712a.514.514,0,0,1-.579.519c-.416,0-.6-.244-.6-.519Z" transform="translate(-39.89 -84.758)" fill="#fff"/>
    <path id="Path_88" data-name="Path 88" d="M162.334,327.468a.49.49,0,0,0-.489.519v.428c0,.213.122.244.245.244h2.41a.533.533,0,0,0,.508-.591v-.374c0-.194-.061-.225-.233-.225Z" transform="translate(-43.304 -87.619)" fill="#fff"/>
    <path id="Path_89" data-name="Path 89" d="M173.726,330.464c0,.183.042.245.233.245H175.6a1.693,1.693,0,0,0,1.923-1.637v-3.956a1.626,1.626,0,0,0-.481-1.373,1.786,1.786,0,0,0,.481-1.484v-3.582a1.675,1.675,0,0,0-1.885-1.637h-1.679c-.19,0-.233.062-.233.245Zm1.942-6.172c.519,0,.542.489.542.832v3.937a.524.524,0,0,1-.591.519h-.58v-5.287Zm-.629-6.122h.58a.522.522,0,0,1,.591.519v3.681c0,.347-.023.832-.542.832h-.629Z" transform="translate(-46.483 -84.829)" fill="#fff"/>
    <path id="Path_90" data-name="Path 90" d="M186.068,330.476v.061c0,.122.042.171.214.171h.617a.492.492,0,0,0,.5-.489l.122-1.85h1.141l.122,1.85a.492.492,0,0,0,.508.489h.622c.171,0,.2-.05.2-.171v-.061L189,317.327c-.023-.244-.145-.286-.389-.286h-1.026c-.233,0-.378.042-.4.286Zm1.5-3.193.519-8.32.519,8.32Z" transform="translate(-49.785 -84.829)" fill="#fff"/>
    <path id="Path_91" data-name="Path 91" d="M199.014,317.041c-.19,0-.233.061-.233.244v11.99a1.711,1.711,0,0,0,1.912,1.629,1.694,1.694,0,0,0,1.885-1.629v-11.99c0-.183-.053-.244-.245-.244h-.56a.508.508,0,0,0-.508.5v11.693c0,.275-.176.511-.591.511a.506.506,0,0,1-.58-.511V317.541a.51.51,0,0,0-.519-.5Z" transform="translate(-53.187 -84.829)" fill="#fff"/>
    <path id="Path_92" data-name="Path 92" d="M214.034,318.169c.377,0,.6-.233.6-.672V317.3c0-.172-.085-.264-.237-.264h-2.572c-.194,0-.237.062-.237.245v13.179c0,.195.042.245.3.245h2.51c.152,0,.237-.092.237-.264v-.194c0-.447-.226-.672-.6-.672H212.9v-5.074h.939c.374,0,.6-.237.6-.672v-.206c0-.16-.079-.252-.232-.252H212.9v-5.207Z" transform="translate(-56.615 -84.829)" fill="#fff"/>
    <path id="Path_93" data-name="Path 93" d="M223.978,330.709a.511.511,0,0,0,.519-.5v-5.165h.58a.519.519,0,0,1,.591.519v4.646a.509.509,0,0,0,.508.5h.561c.19,0,.244-.061.244-.245v-4.913a1.012,1.012,0,0,0-.641-1.026,1.437,1.437,0,0,0,.641-1.324v-4.524a1.668,1.668,0,0,0-1.885-1.637h-1.679c-.19,0-.232.062-.232.245v13.179c0,.183.042.245.232.245Zm1.1-12.539a.522.522,0,0,1,.591.519v4.494c0,.347-.122.732-.541.732h-.63v-5.745Z" transform="translate(-59.716 -84.829)" fill="#fff"/>
    <path id="Path_94" data-name="Path 94" d="M236.737,330.709a.5.5,0,0,0,.53-.519l-.183-7.931,1.313,8a.527.527,0,0,0,.53.446h.538c.183,0,.244-.073.244-.244V317.273c0-.171-.03-.232-.232-.232H238.9a.488.488,0,0,0-.507.507l.183,7.935-1.324-8a.5.5,0,0,0-.5-.439h-.572c-.2,0-.233.061-.233.232v13.192c0,.171.062.244.245.244Z" transform="translate(-63.133 -84.829)" fill="#fff"/>
    <path id="Path_95" data-name="Path 95" d="M248.917,317.041c-.2,0-.233.061-.233.233v13.191c0,.171.062.244.245.244h.538a.5.5,0,0,0,.53-.519V324.3h1.129v5.89a.5.5,0,0,0,.53.519h.538c.183,0,.244-.073.244-.244V317.274c0-.172-.03-.233-.232-.233h-.573a.5.5,0,0,0-.507.508V323.2H250v-5.653a.5.5,0,0,0-.508-.508Z" transform="translate(-66.539 -84.829)" fill="#fff"/>
    <path id="Path_96" data-name="Path 96" d="M261.413,329.185a1.923,1.923,0,0,0,3.8,0V318.4a1.925,1.925,0,0,0-3.8,0Zm1.313-10.743c0-.263.171-.515.591-.515a.521.521,0,0,1,.587.515v10.712a.514.514,0,0,1-.579.519c-.416,0-.6-.244-.6-.519Z" transform="translate(-69.945 -84.758)" fill="#fff"/>
    <path id="Path_97" data-name="Path 97" d="M275.51,323.377V318.17h1.129c.385,0,.6-.226.6-.672V317.3c0-.171-.08-.263-.232-.263h-2.575c-.19,0-.233.061-.233.244v13.161c0,.19.042.263.233.263h.561a.51.51,0,0,0,.519-.5v-5.7h.935c.389,0,.6-.226.6-.672v-.195c0-.171-.084-.263-.237-.263Z" transform="translate(-73.366 -84.829)" fill="#fff"/>
    <path id="Path_98" data-name="Path 98" d="M295.443,315.582a.512.512,0,0,0-.519.508v15.034c0,.13.03.244.244.244h.557a.483.483,0,0,0,.511-.489V315.815c0-.172-.03-.233-.237-.233Z" transform="translate(-78.911 -84.439)" fill="#fff"/>
    <path id="Path_99" data-name="Path 99" d="M315.3,330.709a.51.51,0,0,0,.519-.5V324.3h.439l.916,5.92a.593.593,0,0,0,.6.489h.61c.153,0,.195-.031.195-.122a.382.382,0,0,0-.012-.111l-1.056-6.694,1.056-6.508a.38.38,0,0,0,.012-.111c0-.092-.042-.122-.195-.122h-.61a.607.607,0,0,0-.6.488l-.908,5.684h-.447v-5.673a.51.51,0,0,0-.519-.5h-.561c-.19,0-.232.061-.232.244v13.18c0,.183.042.244.232.244Z" transform="translate(-84.151 -84.829)" fill="#fff"/>
    <path id="Path_100" data-name="Path 100" d="M327.292,330.465c0,.171.042.244.233.244H330.1c.153,0,.233-.092.233-.263v-.195c0-.446-.214-.671-.6-.671H328.6v-12.04a.511.511,0,0,0-.519-.5h-.56c-.191,0-.233.061-.233.244Z" transform="translate(-87.572 -84.829)" fill="#fff"/>
    <path id="Path_101" data-name="Path 101" d="M341.156,318.169c.378,0,.6-.233.6-.672V317.3c0-.172-.084-.264-.237-.264h-2.571c-.195,0-.237.062-.237.245v13.179c0,.195.042.245.3.245h2.51c.152,0,.237-.092.237-.264v-.194c0-.447-.225-.672-.6-.672h-1.129v-5.074h.939c.374,0,.6-.237.6-.672v-.206c0-.16-.08-.252-.232-.252h-1.305v-5.207Z" transform="translate(-90.628 -84.829)" fill="#fff"/>
    <path id="Path_102" data-name="Path 102" d="M350.852,317.041a.505.505,0,0,0-.519.508v12.867c0,.2.092.294.286.294h.732c.2,0,.294-.092.294-.294V317.274c0-.172-.03-.233-.232-.233Z" transform="translate(-93.737 -84.829)" fill="#fff"/>
    <path id="Path_103" data-name="Path 103" d="M360.541,330.709a.5.5,0,0,0,.53-.519l-.183-7.931,1.313,8a.527.527,0,0,0,.53.446h.538c.183,0,.244-.073.244-.244V317.273c0-.171-.03-.232-.232-.232h-.573a.488.488,0,0,0-.507.507l.183,7.935-1.324-8a.5.5,0,0,0-.5-.439h-.572c-.2,0-.233.061-.233.232v13.192c0,.171.062.244.245.244Z" transform="translate(-96.259 -84.829)" fill="#fff"/>
    <path id="Path_104" data-name="Path 104" d="M372.046,330.476v.061c0,.122.042.171.214.171h.617a.492.492,0,0,0,.5-.489l.122-1.85h1.141l.122,1.85a.492.492,0,0,0,.508.489h.622c.171,0,.2-.05.2-.171v-.061l-1.118-13.149c-.023-.244-.145-.286-.389-.286h-1.026c-.233,0-.378.042-.4.286Zm1.5-3.193.519-8.32.519,8.32Z" transform="translate(-99.546 -84.829)" fill="#fff"/>
    <path id="Path_105" data-name="Path 105" d="M385.553,330.709a.511.511,0,0,0,.519-.5v-5.165h.58a.519.519,0,0,1,.591.519v4.646a.509.509,0,0,0,.508.5h.561c.19,0,.244-.061.244-.245v-4.913a1.012,1.012,0,0,0-.641-1.026,1.437,1.437,0,0,0,.641-1.324v-4.524a1.668,1.668,0,0,0-1.885-1.637h-1.679c-.19,0-.232.062-.232.245v13.179c0,.183.042.245.232.245Zm1.1-12.539a.522.522,0,0,1,.591.519v4.494c0,.347-.122.732-.541.732h-.63v-5.745Z" transform="translate(-102.948 -84.829)" fill="#fff"/>
    <path id="Path_106" data-name="Path 106" d="M397.53,330.465c0,.171.042.244.233.244h2.575c.153,0,.233-.092.233-.263v-.195c0-.446-.214-.671-.6-.671h-1.129v-12.04a.511.511,0,0,0-.519-.5h-.56c-.191,0-.233.061-.233.244Z" transform="translate(-106.365 -84.829)" fill="#fff"/>
    <path id="Path_107" data-name="Path 107" d="M131.556,354.918a2.53,2.53,0,0,0-2.491-2.785h-2.418v10.254h2.418a2.53,2.53,0,0,0,2.491-2.785Zm-4.177,6.794v-8.9h1.686a1.87,1.87,0,0,1,1.759,2.109V359.6a1.871,1.871,0,0,1-1.759,2.109Z" transform="translate(-33.886 -94.218)" fill="#fff"/>
    <path id="Path_108" data-name="Path 108" d="M139.729,361.207a1.565,1.565,0,0,1-1.584,1.713,1.66,1.66,0,0,1-1.64-1.858v-1.114h3.883v-1.671a2.179,2.179,0,0,0-2.243-2.342,2.264,2.264,0,0,0-2.3,2.487v2.64a2.264,2.264,0,0,0,2.3,2.487,2.179,2.179,0,0,0,2.243-2.342Zm0-1.888h-3.223v-.9a1.659,1.659,0,0,1,1.64-1.857,1.565,1.565,0,0,1,1.584,1.712Z" transform="translate(-36.348 -95.236)" fill="#fff"/>
    <path id="Path_109" data-name="Path 109" d="M145.248,355.17h-.66v7.324h.66Zm0-2.636h-.66v1.026h.66Z" transform="translate(-38.687 -94.326)" fill="#fff"/>
    <path id="Path_110" data-name="Path 110" d="M152.788,363.4v-5.127a2.149,2.149,0,0,0-2.109-2.342,2.024,2.024,0,0,0-1.858,1l-.237-.85h-.335V363.4h.66v-4.982c0-.981.469-1.858,1.656-1.858,1.171,0,1.567.8,1.567,1.713V363.4Z" transform="translate(-39.666 -95.236)" fill="#fff"/>
    <path id="Path_111" data-name="Path 111" d="M166.2,352.133h-.732V359.9a1.836,1.836,0,1,1-3.662,0v-7.763h-.732V359.9a2.565,2.565,0,1,0,5.127,0Z" transform="translate(-43.096 -94.218)" fill="#fff"/>
    <path id="Path_112" data-name="Path 112" d="M171.408,363.431V358.6c0-1.026.469-1.934,1.655-1.934h.352v-.629h-.237a2,2,0,0,0-1.831,1l-.264-.923h-.335v7.324Z" transform="translate(-45.686 -95.262)" fill="#fff"/>
    <path id="Path_113" data-name="Path 113" d="M176.728,362.12V351.133l-.66.118V362.12Z" transform="translate(-47.109 -93.951)" fill="#fff"/>
    <path id="Path_114" data-name="Path 114" d="M183.87,363.4v-5.272a2.072,2.072,0,0,0-2.156-2.2,2.136,2.136,0,0,0-2.167,2.342h.66a1.533,1.533,0,0,1,1.507-1.713,1.457,1.457,0,0,1,1.5,1.568v.908l-1.686.289c-1.2.191-2.2.779-2.2,2.171a2.135,2.135,0,0,0,3.956,1.026l.248.877Zm-.66-2.2a1.585,1.585,0,0,1-1.717,1.686,1.325,1.325,0,0,1-1.507-1.377c0-1.011.774-1.392,1.641-1.541l1.583-.264Z" transform="translate(-47.982 -95.236)" fill="#fff"/>
    <path id="Path_115" data-name="Path 115" d="M192.708,363.457v-7.324h-.66v4.982c0,.981-.469,1.858-1.655,1.858s-1.568-.8-1.568-1.713v-5.127h-.66v5.127a2.151,2.151,0,0,0,2.109,2.342,1.988,1.988,0,0,0,1.846-.981l.252.836Z" transform="translate(-50.346 -95.289)" fill="#fff"/>
    <path id="Path_116" data-name="Path 116" d="M201.816,357.138a2.3,2.3,0,0,0-2.3-2.487,1.987,1.987,0,0,0-1.861,1.083c.061-.793.133-1.6.133-2.4v-2.2l-.66.118V362.12h.335l.237-.851a1.982,1.982,0,0,0,1.816,1,2.287,2.287,0,0,0,2.3-2.487Zm-.66,2.64c0,.981-.412,1.857-1.671,1.857s-1.7-.877-1.7-1.857v-2.64a1.631,1.631,0,0,1,1.7-1.858c1.259,0,1.671.893,1.671,1.858Z" transform="translate(-52.744 -93.951)" fill="#fff"/>
    <path id="Path_117" data-name="Path 117" d="M217.839,363.4v-5.127c0-1.259-.645-2.342-1.964-2.342a1.818,1.818,0,0,0-1.77,1.171,1.8,1.8,0,0,0-1.743-1.171,1.823,1.823,0,0,0-1.656.935l-.221-.79h-.335V363.4h.66v-5.127a1.508,1.508,0,0,1,1.507-1.713c1.042,0,1.351.79,1.351,1.713V363.4h.656v-5.127a1.51,1.51,0,0,1,1.51-1.713c1.042,0,1.347.79,1.347,1.713V363.4Z" transform="translate(-56.228 -95.236)" fill="#fff"/>
    <path id="Path_118" data-name="Path 118" d="M224.028,355.17h-.66v7.324h.66Zm0-2.636h-.66v1.026h.66Z" transform="translate(-59.765 -94.326)" fill="#fff"/>
    <path id="Path_119" data-name="Path 119" d="M229.933,362.869v-.629h-.542c-1.289,0-1.64-.981-1.64-2.007V356.2h2.476v-.587h-2.476v-1.682l-.439.073v.366c0,.981-.382,1.392-1.244,1.392v.439h1.022v4.028c0,1.492.778,2.636,2.3,2.636Z" transform="translate(-60.488 -94.7)" fill="#fff"/>
    <path id="Path_120" data-name="Path 120" d="M242.913,362.387V352.133h-.732v4.776h-3.662v-4.776h-.732v10.254h.732v-4.776h3.662v4.776Z" transform="translate(-63.623 -94.218)" fill="#fff"/>
    <path id="Path_121" data-name="Path 121" d="M249.028,353.034h-.66v1.316h.66Zm2.2,0h-.66v1.316h.66Zm.908,4.54a2.345,2.345,0,1,0-4.688,0v2.785a2.345,2.345,0,1,0,4.688,0Zm-.66,2.785a1.687,1.687,0,1,1-3.368,0v-2.785a1.687,1.687,0,1,1,3.368,0Z" transform="translate(-66.207 -94.459)" fill="#fff"/>
    <path id="Path_122" data-name="Path 122" d="M261.064,362.12v-4.982a2.266,2.266,0,0,0-2.228-2.487,1.987,1.987,0,0,0-1.861,1.083c.061-.793.133-1.6.133-2.4v-2.2l-.66.118V362.12h.66v-4.982a1.631,1.631,0,0,1,1.7-1.858c1.2,0,1.6.893,1.6,1.858v4.982Z" transform="translate(-68.616 -93.951)" fill="#fff"/>
    <path id="Path_123" data-name="Path 123" d="M269.168,361.207a1.565,1.565,0,0,1-1.583,1.713,1.66,1.66,0,0,1-1.641-1.858v-1.114h3.883v-1.671a2.179,2.179,0,0,0-2.243-2.342,2.264,2.264,0,0,0-2.3,2.487v2.64a2.264,2.264,0,0,0,2.3,2.487,2.179,2.179,0,0,0,2.243-2.342Zm0-1.888h-3.223v-.9a1.659,1.659,0,0,1,1.641-1.857,1.564,1.564,0,0,1,1.583,1.712Z" transform="translate(-70.981 -95.236)" fill="#fff"/>
    <path id="Path_124" data-name="Path 124" d="M278.567,363.4v-5.127a2.149,2.149,0,0,0-2.109-2.342,2.024,2.024,0,0,0-1.858,1l-.237-.85h-.335V363.4h.66v-4.982c0-.981.469-1.858,1.656-1.858,1.171,0,1.567.8,1.567,1.713V363.4Z" transform="translate(-73.32 -95.236)" fill="#fff"/>
    <path id="Path_125" data-name="Path 125" d="M283.82,355.536H286.3v-.587H283.82v-.877c0-1.042.351-2.037,1.641-2.037H286v-.6h-.541c-1.526,0-2.3,1.14-2.3,2.636v.877h-1.171v.587h1.171V362.2h.66Z" transform="translate(-75.45 -94.032)" fill="#fff"/>
    <path id="Path_126" data-name="Path 126" d="M290.328,362.12V351.133l-.66.118V362.12Z" transform="translate(-77.505 -93.951)" fill="#fff"/>
    <path id="Path_127" data-name="Path 127" d="M297.808,363.457v-7.324h-.66v4.982c0,.981-.469,1.858-1.655,1.858s-1.568-.8-1.568-1.713v-5.127h-.66v5.127a2.151,2.151,0,0,0,2.109,2.342,1.988,1.988,0,0,0,1.846-.981l.252.836Z" transform="translate(-78.467 -95.289)" fill="#fff"/>
    <path id="Path_128" data-name="Path 128" d="M306.608,354.873a1.254,1.254,0,0,1-.965,1.156,2.374,2.374,0,0,0-3.65,2.186,2.792,2.792,0,0,0,.6,1.816,1.516,1.516,0,0,0-.527,1.213,1.32,1.32,0,0,0,.615,1.217,3.15,3.15,0,0,0-.836,2.068,2.568,2.568,0,0,0,5.127-.045c0-2.213-2.358-2.213-3.223-2.327-.454-.062-1.038-.206-1.038-.924a.9.9,0,0,1,.366-.793,2.255,2.255,0,0,0,1.259.34,2.343,2.343,0,0,0,2.342-2.564,2.853,2.853,0,0,0-.542-1.717,1.911,1.911,0,0,0,1.129-1.625Zm-3.3,7.851a3.281,3.281,0,0,0,.382.061c1.2.13,2.621.305,2.621,1.743a1.909,1.909,0,0,1-3.807.012,2.766,2.766,0,0,1,.8-1.816m1.026-2.579a1.951,1.951,0,1,1,1.682-1.93,1.733,1.733,0,0,1-1.682,1.93" transform="translate(-80.764 -94.951)" fill="#fff"/>
    <path id="Path_129" data-name="Path 129" d="M212.945,81.378c-.25.211-.633.375-.727.642-.278.781-.941.9-1.585,1.032-.2.041-.47-.156-.686-.281-.469-.272-.918-.577-1.384-.852-.645-.379-.921.1-1.042.564a15.023,15.023,0,0,1-3.463,5.963,16.468,16.468,0,0,1-1.411,1.294c-.16.146-.387.278-.449.461-.344,1.011-1.285,1.41-2.044,1.952a39.67,39.67,0,0,1-4.221,2.7,7.178,7.178,0,0,1-2.593.671,2.325,2.325,0,0,1-2.215-2.038,17.377,17.377,0,0,1,.485-5.65c.248-1.393.439-2.8.688-4.19.381-2.136.793-4.266,1.184-6.4.06-.327.077-.662.114-.993l-.268-.08c-.5,1.285-1.08,2.547-1.481,3.864-.518,1.7-.929,3.434-1.318,5.169-.308,1.37-.514,2.764-.76,4.149a22.767,22.767,0,0,1-2.609,7.552,10.621,10.621,0,0,1-2.427,2.931,19.926,19.926,0,0,1-5.579,3.078,63.98,63.98,0,0,1-7.91,2.165,14.092,14.092,0,0,1-2.66.351,2,2,0,0,1-2.308-2.213,28.213,28.213,0,0,1,.029-3.888,12.794,12.794,0,0,1,.772-2.533c.088-.272.2-.535.3-.8l-.2-.185-2.276,2.259c-1.184-.927-.88-2.117-.872-3.245a2.163,2.163,0,0,0-.234-.984c-.3.642-.628,1.274-.9,1.927-1,2.369-1.98,4.745-2.972,7.116-.417,1-.819,2-1.278,2.975a6.134,6.134,0,0,1-.83,1.254,28.23,28.23,0,0,1-2.1,2.4,6.349,6.349,0,0,1-1.87,1.3,32.412,32.412,0,0,1-4.734,1.713,21.337,21.337,0,0,1-3.951.367c-.863.049-1.734-.034-2.6.014-1.36.075-2.045-.35-1.788-2.02,1.709-.577,3.552-1.146,5.355-1.822a21.934,21.934,0,0,0,6.163-3.4c1.118-.9,2.04-1.983,3.143-2.892a7.63,7.63,0,0,0,1.732-2.681,58.907,58.907,0,0,0,2.512-5.91,36.107,36.107,0,0,0,.9-4.409c.245-1.181.579-2.346.787-3.533a19.067,19.067,0,0,0,.207-2.539,20.619,20.619,0,0,0-.006-2.509c-.109-1.334-.3-2.663-.458-3.994-.114-.96-.2-1.925-.349-2.878a17.057,17.057,0,0,0-.959-4.675,2.163,2.163,0,0,1,1.584-3.222c.758-.13,1.155.385,1.51.819a27.056,27.056,0,0,1,2.744,3.724,19.035,19.035,0,0,1,1.516,3.95,30.033,30.033,0,0,1,.822,3.913,34.656,34.656,0,0,1,.328,3.56c.086,1.741.07,3.488.182,5.227.043.663.376,1.3.483,1.968.1.6.422.629.862.467,1.452-.537,2.89-1.112,4.351-1.619a5.475,5.475,0,0,1,1.274-.145l.844.919c0,.179.007.539,0,.9,0,.1-.031.248-.093.276-1.1.5-1.355,1.76-2.238,2.452a23.445,23.445,0,0,0-2.078,1.7,4.759,4.759,0,0,0-.815,1.376c-.289.611-.521,1.247-.771,1.875-.135.336-.432.729-.352,1.009a24.465,24.465,0,0,0,1.18,3.2c.071.16.664.194.976.121a17.961,17.961,0,0,0,5.593-2.4,15.422,15.422,0,0,0,4.346-4.859,46.325,46.325,0,0,0,3.076-5.847,54.161,54.161,0,0,0,2.364-5.863c.507-1.541.708-3.182,1.061-4.774.213-.963.482-1.913.686-2.878.33-1.561.645-3.125.932-4.693s.535-3.149.8-4.726c.281-1.7.5-3.411.852-5.093a16.947,16.947,0,0,1,1.039-3.317c.531-1.206,1.419-1.345,2.422-.423a5.843,5.843,0,0,1,1.081,1.576,15.916,15.916,0,0,1,1.862,8.3.874.874,0,0,1-.149.4,3.65,3.65,0,0,1,.336.976c0,3.115-.834,6.106-1.394,9.138-.265,1.433-.436,2.884-.713,4.315-.289,1.488-.643,2.963-.993,4.439-.249,1.049-.6,2.077-.782,3.136a5.01,5.01,0,0,0,.218,1.529,3.986,3.986,0,0,0,3.355-.968,15.316,15.316,0,0,0,3.136-3.838c.768-1.189,1.624-2.321,2.388-3.511.4-.618.658-1.32,1.016-1.964a25.984,25.984,0,0,0,2.59-6.935c.458-2.03.825-4.082,1.34-6.1.177-.692.3-1.514,1.226-1.829.786-.267,1.512-.151,1.822.636a5.636,5.636,0,0,1,.714,2.742c-.226,1.19.023,2.345-.149,3.5-.015.1.034.206.239.334.117-.823.257-1.644.344-2.47a10.375,10.375,0,0,0,.127-2.271A49.463,49.463,0,0,0,212,62.68,43.332,43.332,0,0,0,207.6,51.846c-1.243-2.243-2.555-4.451-3.748-6.721-.839-1.6-1.522-3.275-2.292-4.909-.7-1.48-1.448-2.936-2.117-4.429-.7-1.554-1.357-3.127-1.97-4.715-.565-1.466-1.066-2.958-1.553-4.452a9.227,9.227,0,0,1-.4-1.847c-.069-.632.9-1.264,1.515-1.1a2.709,2.709,0,0,1,1.838,1.984,29.948,29.948,0,0,0,3.05,6.251,73.617,73.617,0,0,0,4.849,6.9c.54.7.933,1.506,1.48,2.2.432.545,1.013.971,1.5,1.48a5.118,5.118,0,0,1,.518.784l.359-.072c.068-2.538.215-5.077.177-7.613-.026-1.783-.289-3.565-.474-5.345-.2-1.934-.385-3.872-.66-5.8a49.214,49.214,0,0,1-.458-7.9.909.909,0,0,1,.352-.683.867.867,0,0,1,.728.125,5.188,5.188,0,0,1,1.879,2.511,15.829,15.829,0,0,1,1.184,4.89c.1,1.627.243,3.256.475,4.869.11.763.563,1.474.7,2.238.154.871.107,1.775.185,2.661.031.348.2.682.246,1.03.18,1.25.358,2.5.5,3.754.13,1.159.2,2.325.314,3.486.081.812.2,1.62.3,2.429.013.1.053.2.062.308.11,1.336.28,2.671.307,4.009a12.11,12.11,0,0,0,.85,4.531,13.627,13.627,0,0,0,1.206,2.046c.595.916,1.224,1.808,1.909,2.815a5.571,5.571,0,0,0,1.1-1.053c.726-1.211,1.358-2.476,2.025-3.721.8-1.493,1.552-3.014,2.409-4.474.916-1.561,1.863-3.111,2.917-4.581a10.788,10.788,0,0,1,3.576-3.312,2.76,2.76,0,0,1,.786-.16v2.434c-.493,1.22-1.017,2.428-1.472,3.661q-1.339,3.628-2.61,7.28c-.325.93-.532,1.9-.875,2.826q-1.325,3.567-2.725,7.106c-1.142,2.9-2.273,5.8-3.487,8.674-.617,1.457-1.387,2.851-2.116,4.259-1.039,2.009-2.046,4.039-3.18,6-.749,1.294-1.7,2.473-2.548,3.708-.5.717-.958,1.458-1.478,2.156-.327.439-.76.8-1.1,1.232-.787,1-1.586,2-2.292,3.059-.194.292-.239,1.033-.075,1.14a1.627,1.627,0,0,0,1.28.136c1.55-.579,3.048-1.293,4.593-1.885a9.392,9.392,0,0,1,2.4-.61c.776-.075,1.042.42.721,1.141-.363.816-.762,1.616-1.157,2.419-.042.087-.15.143-.231.209a28.428,28.428,0,0,1-2.657,2.168A24.567,24.567,0,0,1,210.982,99c-2.548,1.152-5.093,2.313-7.677,3.38-1.457.6-2.977,1.06-4.488,1.521-2.312.707-4.624,1.422-6.965,2.022-2.783.714-5.608,1.26-8.391,1.976-1.73.445-3.418,1.06-5.117,1.62-1.556.513-3.123,1-4.65,1.6-2,.776-3.954,1.644-5.929,2.471-.825.345-1.655.675-2.476,1.028-1.448.623-2.862,1.344-4.346,1.865a4.78,4.78,0,0,1-4.443-.7c-.76-.565-1.6-1.039-2.314-1.663a2.109,2.109,0,0,1-.584-1.083c-.141-.628.245-.943.886-.874a19.93,19.93,0,0,0,3.6.313,27.18,27.18,0,0,0,5.291-.866c2.495-.708,4.917-1.668,7.37-2.523,1.666-.58,3.342-1.129,4.991-1.752,1.493-.564,2.947-1.235,4.436-1.811,2.257-.874,4.537-1.687,6.792-2.564,2.176-.847,4.32-1.777,6.5-2.605,1.723-.654,3.486-1.2,5.226-1.81,1.421-.5,2.834-1.023,4.242-1.664-.491.087-.989.143-1.47.267a1.511,1.511,0,0,1-1.887-.669.707.707,0,0,1-.014-.624,13.446,13.446,0,0,1,1.466-1.534c.6-.52,1.4-.783,1.847-1.522.161-.268.534-.4.771-.634.7-.69,1.365-1.422,2.087-2.093.48-.446,1.038-.809,1.555-1.217.148-.117.384-.249.4-.39.093-1.014,1.069-1.413,1.559-2.144.506-.755,1.249-1.43,1.8-2.205.647-.9,1.247-1.839,1.866-2.763a19.556,19.556,0,0,0,2.591-4.239c.483-1.249,1.166-2.426,1.582-3.694.874-2.66,1.667-5.356,1.173-8.219-.214-1.236-.4-2.484-.716-3.694a8.049,8.049,0,0,0-.94-2.068,17.234,17.234,0,0,0-1.349-1.719c-.081.188-.1.215-.1.237.483,2.458,1.14,4.9,1.4,7.38a41.827,41.827,0,0,1-.144,5.981,4.551,4.551,0,0,1-.212,1.07c-.4,1.36-.776,2.727-1.23,4.069-.282.836-.691,1.627-1.031,2.443s-.67,1.651-1,2.477" transform="translate(-37.651 -4.232)" fill="#fff"/>
    <path id="Path_130" data-name="Path 130" d="M97.118,285.782c-.162-.348-.348-.686-.482-1.044q-.9-2.392-1.769-4.795-1-2.76-1.962-5.531a4.269,4.269,0,0,1-.275-1.1c-.115-1.754-.17-3.513-.3-5.267-.075-1.05-.256-2.092-.359-3.141-.127-1.283-.224-2.57-.33-3.856-.111-1.359-.23-2.719-.324-4.08a23.23,23.23,0,0,0-1.153-6.446c-.672-1.848-1.111-3.778-1.685-5.662-.361-1.185-.853-2.333-1.16-3.53-.521-2.029-1.422-3.951-1.561-6.094-.115-1.783-.456-3.552-.657-5.331-.177-1.564-.287-3.136-.452-4.7-.145-1.381-.418-2.755-.471-4.139q-.192-5.058-.211-10.122a16.826,16.826,0,0,1,.419-2.743c.079-.481.331-.981-.2-1.381-.056-.042-.031-.2-.031-.306-.016-2.539-.1-5.08-.023-7.617a47.432,47.432,0,0,1,.514-4.814c.234-1.765.445-3.54.813-5.279.42-1.988,1.007-3.94,1.509-5.911.37-1.455.75-2.907,1.069-4.373.329-1.512.586-3.038.883-4.557a53.144,53.144,0,0,1,1.287-6.128,3.2,3.2,0,0,0-.271-2.106,4.4,4.4,0,0,0-1.324-2.02c-1.367-1.335-2.961-2.375-4.354-3.657-.373-.343-1.013-.44-1.116-1.113-.021-.137-.5-.2-.667-.445-.3-.218-.595-.44-.9-.65-.085-.059-.259-.053-.288-.12-.588-1.375-2.377-1.583-2.928-3.035-.141-.37-.755-.535-1.069-.872a9.522,9.522,0,0,1-.83-1.2.749.749,0,0,0-.144-.187,17.4,17.4,0,0,1-3.6-4.381,6.6,6.6,0,0,0-2.052-2.117,8.565,8.565,0,0,0-2.836-1.3,3.416,3.416,0,0,0-2.545.272,2.267,2.267,0,0,0-.435,3.176c.785,1.077,1.555,2.165,2.375,3.215a6.665,6.665,0,0,0,.971.8.981.981,0,0,1,.325.416,1.172,1.172,0,0,0,.907.979.975.975,0,0,1,.518.477,9.387,9.387,0,0,0,3.816,3.789c.07.038.171.1.179.155.155,1.121,1.374,1.2,1.957,1.972a13.5,13.5,0,0,0,2.835,2.218c.842.634,1.663,1.3,2.524,1.9.832.585,1.728,1.081,2.551,1.678a8.8,8.8,0,0,1,1.427,1.336c.114.13-.028.483-.052.734-.2-.02-.406-.026-.6-.062q-.814-.143-1.624-.306a14.16,14.16,0,0,1-5.731-2.939c-1.193-.913-2.44-1.757-3.6-2.708a13.679,13.679,0,0,1-1.463-1.644,1.322,1.322,0,0,0-.349-.334,8.068,8.068,0,0,1-3.49-3.423c-.064-.114-.281-.132-.378-.239-.267-.293-.511-.606-.753-.92-.044-.057-.008-.189-.056-.226a22.593,22.593,0,0,1-4.368-5.28,18.943,18.943,0,0,1-1.69-2.555,4.638,4.638,0,0,1,.07-4.924,3.535,3.535,0,0,1,3.177-1.931c1.326-.013,2.654-.195,3.975-.145a12.451,12.451,0,0,1,3.089.512c2.877.867,5.372,2.546,8.015,3.911.546.282,1.153.448,1.688.746q3.374,1.869,6.718,3.793c1.192.689,2.363,1.419,3.512,2.178q1.458.96,2.84,2.034a13.671,13.671,0,0,1,1.668,1.554.74.74,0,0,1-.078.72,3.828,3.828,0,0,1-2.849.631c-.231-.039-.5-.162-.688-.084a2.971,2.971,0,0,1-2.52-.245,11.981,11.981,0,0,1-4.039-2.736,21.08,21.08,0,0,0-3.187-2.544c-.921-.71-1.823-1.449-2.783-2.1a21.972,21.972,0,0,0-2.288-1.293c-1.458-.755-2.931-1.484-4.4-2.224l-.192.294c.738.541,1.485,1.07,2.21,1.629a12.825,12.825,0,0,1,1.053.944c.569.549,1.124,1.113,1.688,1.668a2.61,2.61,0,0,0,.336.294c.061.042.18.011.23.059q1.025.961,2.035,1.939c.035.034.036.139.062.142.938.111,1.214,1.085,1.938,1.471.14.075.323.1.428.2a22.019,22.019,0,0,0,1.66,1.7c.844.68,1.772,1.256,2.671,1.866.795.541,1.731.911,2.177,1.862.042.091.148.207.232.215,1.21.107,1.686,1.179,2.243,1.942a12.606,12.606,0,0,1,1.71,3.541,11.726,11.726,0,0,1,.215,2.77,9.951,9.951,0,0,1,.105,1.422,18.576,18.576,0,0,1-.322,2.167,9.007,9.007,0,0,0,.694,6.287c1.026,1.888,2.054,3.776,3.013,5.7.751,1.505,1.324,3.1,2.11,4.585a44.777,44.777,0,0,0,2.45,3.916c.524.782,1.146,1.5,1.742,2.265a1.266,1.266,0,0,1-1.529.518,12.688,12.688,0,0,1-4.29-2.213,40.374,40.374,0,0,0-4.225-3.719c-.5-.326-.743-.908-1.387-1.211-1.044-.493-1.845-.374-2.041.76a41.151,41.151,0,0,0-.449,4.258c-.085,1.268.045,2.559-.131,3.811-.208,1.477-.164,2.963-.342,4.425a37.423,37.423,0,0,0-.123,3.87c-.026,1.326-.1,2.653-.173,3.978a3.588,3.588,0,0,1-.244.747,2.1,2.1,0,0,0-.155.675c.026.466.168.927.174,1.392.023,1.919.067,3.84,0,5.758-.066,1.975.319,3.912.39,5.878a51.228,51.228,0,0,0,.8,5.4c.233,1.61.357,3.238.657,4.834.328,1.748.771,3.476,1.221,5.2a53.963,53.963,0,0,0,3.259,8.863,11.436,11.436,0,0,1,.829,3.691c.182,2,.185,4.022.238,6.035a4.875,4.875,0,0,1-.4,2.169,3.659,3.659,0,0,0,.248,3.308,1.56,1.56,0,0,1,.155.735c.031,2.066-.058,4.14.1,6.2.144,1.89.527,3.764.842,5.638.237,1.409.459,2.829.823,4.207.423,1.6.957,3.176,1.515,4.737a2.484,2.484,0,0,1-.346,2Z" transform="translate(-16.162 -37.487)" fill="#fff"/>
    <path id="Path_131" data-name="Path 131" d="M2.113,0c.248.562.47,1.136.747,1.682C3.409,2.765,4,3.828,4.553,4.907c1.041,2.018,2.1,4.025,3.1,6.066,1.066,2.189,2.076,4.406,3.085,6.623a16.386,16.386,0,0,0,1.326,3.066c1.2,1.619,1.637,3.587,2.686,5.264a3.588,3.588,0,0,1,.42,1.674,1.069,1.069,0,0,1-.5.875,1.17,1.17,0,0,1-1.025-.291c-.742-.871-1.379-1.83-2.075-2.741a26.447,26.447,0,0,0-2.133-2.512L18.13,47.11c.59-1.377,1.348-2.836,1.844-4.378.615-1.914,1.053-3.889,1.49-5.854a15.28,15.28,0,0,0,.18-2.339c.063-.987.159-1.975.171-2.963a41.387,41.387,0,0,0-.492-7.324c-.206-1.237-.225-2.5-.505-3.776a18.146,18.146,0,0,0-.373,2.131c-.1,1.579-.039,3.17-.187,4.743-.141,1.5-.47,2.989-.706,4.484-.24,1.523-.405,3.062-.738,4.565a2.85,2.85,0,0,1-1.008,1.321c-.116.1-.667-.175-.921-.391a4.385,4.385,0,0,1-1.373-3.335,9.72,9.72,0,0,1,.42-3.934,35.054,35.054,0,0,0,1.356-4.24c.322-1.371.425-2.793.626-4.192.024-.171.009-.393.109-.5.258-.267.426-.483.058-.789-.059-.049,0-.217-.042-.311-.264-.624.394-1.207-.079-1.959-.339-.538-.05-1.47-.039-2.227s.022-1.514.034-2.271a.706.706,0,0,0,0-.162c-.287-1.2.2-2.313.387-3.462.045-.277-.149-.587-.208-.888a4.108,4.108,0,0,1-.089-.79c0-1.187-.023-2.378.059-3.561a2.338,2.338,0,0,1,.515-1.333c.929-1.02,1.974-.918,2.624.844A38.425,38.425,0,0,1,22.721,9.51c.371,1.742.557,3.524.8,5.293.094.68.139,1.37.175,2.056a1.659,1.659,0,0,1-.12.521,4.628,4.628,0,0,1,.3,1.1c.027,1.133-.1,2.275,0,3.4.124,1.455.428,2.893.613,4.343.144,1.13.212,2.271.34,3.4.155,1.365.343,2.725.505,4.088.166,1.389.218,2.8.508,4.165a8.332,8.332,0,0,1-.229,3.889c-.327,1.266-.935,2.457-1.325,3.711a43.946,43.946,0,0,0-1.362,4.984,54.865,54.865,0,0,0-.852,6.58c-.163,2.586-.086,5.188-.148,7.781-.007.281-.306.546-.35.836a3.442,3.442,0,0,0,.092,1.311c-.6.89-1.675,1.021-2.665,1.322-.122.037-.328.054-.39-.014a5.838,5.838,0,0,1-1.33-1.621c-.316-.858-1.027-1.228-1.614-1.743a24.211,24.211,0,0,0-2.237-1.636A17.789,17.789,0,0,0,11.449,62c-1.241-.63-2.509-1.211-3.792-1.751-.965-.406-2.008-.637-2.947-1.089a7.509,7.509,0,0,1-2.154-1.468c-1.038-1.078-.347-3.325,1.056-3.508a7.758,7.758,0,0,1,3.729.286c1.6.586,3.221,1.107,4.814,1.709.531.2.986.593,1.5.842.537.257,1.243.631,1.668.14a2.41,2.41,0,0,0,.48-1.765c-.373-2.176-.819-4.347-1.381-6.482-.618-2.351-1.331-4.682-2.118-6.982-.825-2.409-1.8-4.767-2.684-7.155-.93-2.51-1.835-5.03-2.746-7.547C5.744,24.1,4.589,20.981,3.5,17.836c-.6-1.742-1.044-3.538-1.616-5.29C1.3,10.732.632,8.941,0,7.141V0Z" fill="#fff"/>
    <path id="Path_132" data-name="Path 132" d="M69.288,29.513c1.758-.048,3.4-.146,5.044-.12,1.329.022,2.654.2,3.982.3.691.053,1.385.075,2.073.154,1.833.211,3.66.467,5.494.663,1.238.132,2.484.19,3.725.286,1.323.1,2.653.147,3.964.33a12.655,12.655,0,0,1,3.007.729A16.2,16.2,0,0,1,99.3,33.443a1.853,1.853,0,0,1,.216,2.771c-1.155,1.192-2.725,1.456-4.21,1.8a35.1,35.1,0,0,0-6.443,1.858,7.548,7.548,0,0,1-4.392.49,41.931,41.931,0,0,0-5.778-.669A60.374,60.374,0,0,0,72.475,40a62.722,62.722,0,0,0-6.548.671,18.811,18.811,0,0,0-7.457,2.894c-.671.466-1.471.743-2.187,1.149-1.662.943-3.327,1.885-4.951,2.89a10.4,10.4,0,0,0-1.362,1.269,1.039,1.039,0,0,1-.469.27c-.956.18-1.139,1.117-1.709,1.669-.764.74-1.054,1.832-2.025,2.44-.421.264-.542.979-.85,1.456a16.254,16.254,0,0,0-2.076,9,38.139,38.139,0,0,0,.127,4.561c.188,1.514.693,2.985.972,4.491a25.154,25.154,0,0,0,2.336,6.057c.018.037.09.049.138.074a41.32,41.32,0,0,1,.029-4.325c.209-1.989.563-3.968.968-5.927a43.717,43.717,0,0,1,1.312-4.914,18.967,18.967,0,0,1,1.458-3.018,5.88,5.88,0,0,1,.942-1.01c1.272-.308,2.087.864,2.417,2.057.584,2.12,1.025,4.283,1.663,6.385a28.473,28.473,0,0,0,1.546,3.626,54.168,54.168,0,0,0,2.416,4.973c.994,1.672,2.233,3.2,3.349,4.8.358.514.659,1.066,1,1.593a.652.652,0,0,0,.294.23c.472.185.627.571.88.987a9.69,9.69,0,0,0,1.779,1.778c.347.327.7.653,1.067.951a19.481,19.481,0,0,0,1.627,1.239c1.424.921,2.859,1.827,4.315,2.7a33.142,33.142,0,0,0,3.359,1.822,1.668,1.668,0,0,0,1.414-.123,1.2,1.2,0,0,0,.257-1.6c-.586-1.094-.905-2.484-1.779-3.239-1.517-1.31-2.2-3.064-3.2-4.653a8.917,8.917,0,0,1-.758-1.959.788.788,0,0,1,.053-.621,8.988,8.988,0,0,1,1.053-1.21c.516-.492,1.076-.325,1.517.268a10.424,10.424,0,0,0,1.243,1.221c.058.056.163.086.187.15.393,1.036,1.365,1.558,2.124,2.22a3.239,3.239,0,0,0,2.6,1.072,1.213,1.213,0,0,0,.825-.656,21.629,21.629,0,0,0,.5-2.38c.049-.247.115-.49.175-.744a2.549,2.549,0,0,1-.177-.781c.151-1.7.29-3.4.524-5.082.316-2.271.613-4.551,1.106-6.786a14.2,14.2,0,0,1,2.64-5.868c.425-.538.616-1.254,1.008-1.824a16.973,16.973,0,0,1,1.632-2.016,1.549,1.549,0,0,1,1.9.269,3.252,3.252,0,0,1,.528,2.027,37.586,37.586,0,0,1-.992,7.633c-.388,2.111-1.1,4.16-1.558,6.261a10.675,10.675,0,0,0-.082,5.917,12.806,12.806,0,0,1,.378,4.35,19.221,19.221,0,0,0,.735,5.3,53.576,53.576,0,0,0,3.26,8.374c.757,1.713,1.625,3.382,2.262,5.144a1.092,1.092,0,0,1-.283.885c-.113.125-.551.083-.765-.031-.794-.42-1.261-1.272-1.926-1.753a7.851,7.851,0,0,1-1.787-2.024,32.258,32.258,0,0,1-3.355-6.621q-.9-2.216-1.875-4.4c-.1-.218-.38-.548-.505-.519a.972.972,0,0,0-.59.529c-.382.981-.737,1.977-1.039,2.985a4.922,4.922,0,0,0,.575,3.432c.374.861.861,1.675,1.318,2.5.207.372.676.392.918.9a17.85,17.85,0,0,0,1.829,2.227c.95,1.337,1.79,2.752,2.719,4.106a1.63,1.63,0,0,1,.015,1.9q-1.637-.825-3.28-1.654c-.622-.316-1.252-.62-1.855-.969-1.7-.986-3.4-1.989-5.088-2.993-1.058-.628-2.135-1.233-3.155-1.922-.7-.472-1.3-1.085-1.971-1.6-.241-.186-.584-.239-.828-.423-1.07-.811-2.156-1.605-3.166-2.488-.64-.56-1.122-1.3-1.739-1.891-.363-.349-.888-.527-1.277-.855a11.148,11.148,0,0,1-2.2-2.052c-.834-1.243-2.3-1.717-3.149-2.906A15.938,15.938,0,0,0,62.2,86.136c-.117-.121-.351-.121-.5-.223-.273-.188-.526-.4-.781-.617s-.491-.448-.753-.65c-.4-.31-.823-.6-1.233-.9a6.962,6.962,0,0,1-1.261-.95c-1.13-1.324-2.249-2.662-3.281-4.062-1.381-1.872-1.584-4.179-2.2-6.408a12.4,12.4,0,0,0-.778,5.333,17.276,17.276,0,0,0,1.67,6.122,29.733,29.733,0,0,0,3.386,5.276c.834,1.08,1.882,1.9,2.779,2.887a25.1,25.1,0,0,0,5.1,3.782,63.575,63.575,0,0,0,5.933,3.459c1.494.767,2.922,1.662,4.387,2.487,2.241,1.263,4.521,2.46,6.722,3.789,1.707,1.03,3.263,2.314,4.986,3.312a6.341,6.341,0,0,0,6.961.088,8,8,0,0,1,3.1-1.107c2.095-.329,4.231-.391,6.333-.683a11.975,11.975,0,0,1,4.863.212,4.044,4.044,0,0,1,1.936,1.507c.511.692-.344,1.8-1.457,1.908a5.137,5.137,0,0,1-2.206-.127c-1.777-.663-3.355-.043-4.861.665-1.685.793-3.245,1.85-4.879,2.757a8.005,8.005,0,0,0-2.714,3.078,1.977,1.977,0,0,1-3.138.349,8.794,8.794,0,0,1-.83-1.2c-.06-.089-.09-.212-.171-.269-.684-.484-1.381-.952-2.065-1.436-.19-.134-.346-.317-.532-.458a36.336,36.336,0,0,0-7.288-4.195c-2.018-.887-4.1-1.627-6.1-2.544q-3.522-1.612-6.947-3.429c-1.391-.739-2.677-1.673-4.02-2.5-1.166-.721-2.374-1.378-3.513-2.137-1.083-.722-2.1-1.545-3.152-2.317-1.156-.847-2.334-1.666-3.473-2.536-1.194-.913-2.347-1.88-3.527-2.811-.552-.436-1.137-.829-1.685-1.27-.176-.141-.259-.391-.417-.561a4.757,4.757,0,0,0-.59-.5c-.058-.045-.183-.01-.231-.058-.549-.548-1.088-1.1-1.627-1.66-.071-.074-.112-.229-.185-.241-1.1-.187-1.585-1.149-2.306-1.8-1.169-1.06-2.345-2.121-3.417-3.275A9.615,9.615,0,0,1,36.69,79.9a53.472,53.472,0,0,1-2.254-5.133,33.563,33.563,0,0,1-.965-3.964c-.324-1.4-.73-2.787-.93-4.2-.2-1.447-.19-2.922-.3-4.384-.047-.633-.191-1.259-.23-1.892A8.116,8.116,0,0,1,32,57.911c.307-1.216.045-2.459.442-3.679.39-1.2.344-2.535.689-3.754a30.689,30.689,0,0,1,1.8-5.09,26.484,26.484,0,0,1,3.585-6.069c.534-.61.777-1.509,1.373-2.024,1.707-1.476,2.248-3.562,3.175-5.461A16.211,16.211,0,0,0,44.2,26.546a22.781,22.781,0,0,1,1.36-4.7c.578-1.608,1.257-3.186,1.985-4.733A6.53,6.53,0,0,1,48.8,14.638c.341-.306.309-.991.584-1.414.595-.916,1.273-1.778,1.929-2.653a11.424,11.424,0,0,1,3.339-2.689c.852-.53,1.185.053,1.7.389.567.373.267.877.12,1.281-.3.824-.726,1.6-1.047,2.419-.907,2.315-1.819,4.63-2.668,6.968-.464,1.279-.821,2.6-1.193,3.91a1.77,1.77,0,0,0,.729,2.351,1.416,1.416,0,0,0,1.1.195c1.92-.782,3.8-1.668,5.709-2.466,1.857-.774,3.746-1.47,5.61-2.227,1.972-.8,3.917-1.665,5.9-2.435A27.318,27.318,0,0,1,77,16.2c1.477-.19,2.9-.738,4.368-1.055,1.352-.292,2.719-.527,4.088-.716a20.393,20.393,0,0,1,3.618-.311,8.344,8.344,0,0,1,4.033.97c.446.269,1.092.721.568,1.482-.04.059-.108.152-.088.19.546,1.019-.319,1.26-.918,1.51-1.912.8-3.871,1.49-5.785,2.286-1.991.828-3.96,1.71-5.922,2.605s-3.863,1.907-5.85,2.726a47.754,47.754,0,0,0-5.7,3.176c-.078.045-.068.237-.122.451m1.5-6.792c-.287-.067-.346-.1-.39-.089-1.688.482-3.379.947-5.055,1.463a14.234,14.234,0,0,0-2.033.824c-1.411.688-2.832,1.366-4.191,2.15-.95.549-1.794,1.277-2.7,1.907a8.859,8.859,0,0,0-2.277,1.592c-.672.932-1.963,1.122-2.383,2.245-.786-.062-.959.589-1.274,1.08a.6.6,0,0,1-.285.267,2.794,2.794,0,0,0-1.987,1.8.664.664,0,0,1-.365.3A2.612,2.612,0,0,0,46.3,37.875a3.115,3.115,0,0,1-.7.812c-.217.234-.443.458-.785.809-.587-.115-.36.647-.617,1.014a18.667,18.667,0,0,1-1.428,1.9,23.5,23.5,0,0,0-3.106,5.059,25.019,25.019,0,0,0-2.627,6.915A51.348,51.348,0,0,0,36.019,61.3a49.888,49.888,0,0,0,.293,6.546A18.475,18.475,0,0,0,36.86,71.1c.331,1.268.8,2.5,1.225,3.743.129.379.3.744.45,1.116a.714.714,0,0,0,.28-.54c0-2.458-.059-4.919.026-7.374.037-1.062-.371-2.2.365-3.2.065-.088-.04-.308-.08-.464a2.191,2.191,0,0,1-.174-.629c.1-1.428.2-2.856.358-4.28A20.861,20.861,0,0,1,41.287,53.2a42.77,42.77,0,0,1,2.052-3.78,10.291,10.291,0,0,1,2.755-3.433c.092-.066.116-.225.173-.34.36-.727.754-1.409,1.664-1.57a.633.633,0,0,0,.433-.326c.275-.861,1.107-1.154,1.727-1.577a14.709,14.709,0,0,1,5.416-2.391c2.019-.408,3.989-1.051,6-1.5,1.967-.437,3.958-.769,5.942-1.126,1.9-.343,3.8-.686,5.7-.979,1.378-.212,2.767-.371,4.156-.5,1.921-.182,3.846-.32,5.77-.472.433-.034.874-.086,1.29-.135a19.011,19.011,0,0,1,3.694.063,3,3,0,0,0,1.958-.215c-2.044-.474-4.1-.788-6.152-1.063-.761-.1-1.534-.11-2.3-.163-1.189-.082-2.379-.23-3.568-.232-1.328,0-2.656.121-3.984.2-1.025.059-2.05.111-3.073.2-.787.07-1.567.207-2.353.29-1.217.128-2.439.216-3.654.356-1.1.126-2.193.3-3.289.452-1.223.171-2.451.317-3.669.521-.777.13-1.291-.2-1.275-.659.36-.395.588-.637.807-.888.342-.391.656-.809,1.022-1.176.436-.437.946-.8,1.365-1.251a14.179,14.179,0,0,1,1.369-1.622c1.333-1.039,2.756-1.96,4.128-2.949q1.864-1.344,3.694-2.734c.552-.42,1.053-.907,1.7-1.473" transform="translate(-8.537 -2.052)" fill="#fff"/>
    <path id="Path_133" data-name="Path 133" d="M226.678,244.42a21.131,21.131,0,0,1-3.317-.032c-1.755-.281-3.521-.086-5.267-.3-2.653-.319-5.306-.643-7.953-1.006-2.095-.288-4.195-.568-6.267-.981-1.781-.354-3.536-.848-5.281-1.358s-3.5-1.059-5.2-1.709a5.422,5.422,0,0,1-2.547-1.6c-.324-.417-.945-.59-1.342-.967a16.647,16.647,0,0,1-2.7-4.083c-.816-1.429-1.729-2.805-2.659-4.164-.379-.553-1.01-.94-1.367-1.5a33.329,33.329,0,0,0-2.968-3.587,10.536,10.536,0,0,0-2.621-1.838,1.27,1.27,0,0,1-.335-1.96c.623-.749,1.137-1.589,1.726-2.368.52-.688.969-1.469,1.989-1.551,1.288-.1,1.7.859,2.142,1.74.647,1.3,1.233,2.629,1.829,3.952.464,1.031.834,2.112,1.375,3.1.694,1.263,1.51,2.46,2.289,3.676.425.664.855,1.328,1.333,1.954.3.4.727.7,1.04,1.086.426.529.793,1.105,1.2,1.653a1.923,1.923,0,0,0,.363.338c.269.212.627.361.8.631a12.7,12.7,0,0,0,2.519,2.476,7.815,7.815,0,0,0,3.04,1.271c1.907.527,3.845.949,5.779,1.37q2.729.592,5.479,1.082c1.458.258,2.929.455,4.4.639.82.1,1.657.081,2.476.192,1.71.232,3.414.51,5.119.779q2.056.324,4.107.673a22.758,22.758,0,0,1,2.606.5c.363.105.646.512.929.815.038.041-.1.308-.215.42a2.459,2.459,0,0,1-2.252.784,1.5,1.5,0,0,0-.243,0v-.127" transform="translate(-47.232 -57.636)" fill="#fff"/>
    <path id="Path_134" data-name="Path 134" d="M170.331,188.851c-.687-1.12-1.454-2.344-2.181-3.59a.677.677,0,0,1,.048-.642,1.245,1.245,0,0,1,.835-.4,2.7,2.7,0,0,1,1.956,1.664c.571,1.1,1.137,2.2,1.773,3.264.28.467.765.8,1.091,1.25a2.472,2.472,0,0,1-.226,2.988c-.255.25-.736.27-1.258.444.436.593.894,1.169,1.3,1.779a3.227,3.227,0,0,1-.266,4.31c-.9.908-2.323.867-3.659.182a10.154,10.154,0,0,0-3.39-.885c-1.756-.208-3.313.616-4.908,1.219a10.331,10.331,0,0,1-2.437.537,1.113,1.113,0,0,1-1.118-1.274,11.708,11.708,0,0,1,.964-2.145c.5-.883,1.146-1.684,1.6-2.583.578-1.132.071-1.921-1.173-1.876a13.142,13.142,0,0,0-1.787.351c-.338.061-.587.442-1.052-.018a1.265,1.265,0,0,1-.349-1.422,4.281,4.281,0,0,1,2.809-2.994,25.268,25.268,0,0,1,2.929-.587,9.765,9.765,0,0,1,2.12-.128c2.169.153,4.333.372,6.374.554" transform="translate(-41.743 -49.29)" fill="#fff"/>
    <path id="Path_135" data-name="Path 135" d="M173.842,165.4v-1.135c1.344-.509,2.657-.917,3.89-1.493,1.731-.809,3.426-1.7,5.089-2.643a11.468,11.468,0,0,0,1.722-1.451c.1-.086.154-.241.263-.293a6.6,6.6,0,0,0,2.564-2.486,4.043,4.043,0,0,1,1.836-1.541,3.514,3.514,0,0,0,1.857-2.9c.19-1.129-.119-2.063-1.826-1.539-2.186.672-4.321,1.516-6.469,2.308-1.078.4-2.145.827-3.2,1.271-1.821.762-3.683,1.45-5.422,2.371-.668.354-1,1.295-1.562,1.9a2.179,2.179,0,0,1-2.789.439,15.516,15.516,0,0,1-1.616-.979,1,1,0,0,1,.171-1.677c.517-.321.962-.762,1.49-1.062,1.143-.65,2.3-1.289,3.487-1.847,1.809-.847,3.625-1.7,5.489-2.409,1.907-.729,3.866-1.334,5.824-1.92a22.49,22.49,0,0,1,3.8-.88,11.4,11.4,0,0,1,5.055.2A2.382,2.382,0,0,1,194.865,151a24.8,24.8,0,0,1-1.939,3.2,16.878,16.878,0,0,1-1.712,1.536c-.5.507-.882,1.124-1.367,1.647a9.76,9.76,0,0,1-1.6,1.505c-2.821,1.9-5.548,3.94-8.808,5.145a40.742,40.742,0,0,1-5.6,1.358" transform="translate(-44.894 -39.401)" fill="#fff"/>
    <path id="Path_136" data-name="Path 136" d="M136.375,178.023c-1.239.9-2.188-.044-3.111-.617a11.07,11.07,0,0,0-5.493-1.967,30.09,30.09,0,0,1-4.4-.776,6.74,6.74,0,0,1-3.476-1.527c-1.279-1.206-2.684-2.32-3.05-4.233a3.175,3.175,0,0,1,1.222-3.162c.36-.234.527-.814.9-.977a10.186,10.186,0,0,1,3.27-1.11,22.54,22.54,0,0,1,2.808-.076,8.539,8.539,0,0,1,6.038,3.86,11.044,11.044,0,0,1,1.92,3.924,11.038,11.038,0,0,0,2.042,4.11c.515.793,1.607,1.329,1.338,2.552m-6.685-5.467a13.1,13.1,0,0,0-.809-1.637c-.484-.718-1.077-1.361-1.591-2.06a4,4,0,0,0-2.8-1.948c-1.148-.121-2.294-.256-3.444-.345a1.1,1.1,0,0,0-.619.262c-.968.691-.43,1.549-.123,2.264.452,1.054,1.552,1.423,2.507,1.858.994.453,2.068.724,3.085,1.133a6.565,6.565,0,0,0,3.792.472" transform="translate(-31.248 -43.762)" fill="#fff"/>
    <path id="Path_137" data-name="Path 137" d="M131.69,237.063c-.08-2.027-.185-3.866-.212-5.7a26.461,26.461,0,0,1,.147-3.434,2.607,2.607,0,0,1,1.207-1.852,13.856,13.856,0,0,0,1.118-1.141c.9-.791,1.985-.438,2.982-.358a7.69,7.69,0,0,1,1.839.664c.145.053.392.127.454.062.93-.984,2.26-.484,3.363-.928,2.094-.842,4.287-1.444,6.445-2.127.508-.16.967-.38,1.519.157a.783.783,0,0,1,.1,1.226,10.654,10.654,0,0,1-4.2,3.28c-1.744.677-3.5,1.334-5.282,1.9a11.591,11.591,0,0,0-4.645,2.731,9.954,9.954,0,0,0-2.717,5.115,2,2,0,0,1-.518,1.028,1.165,1.165,0,0,1-1.016.24c-.3-.149-.437-.619-.587-.858" transform="translate(-35.178 -59.415)" fill="#fff"/>
    <path id="Path_138" data-name="Path 138" d="M169.366,211.66c.171,1.152-.149,1.655-1.22,2.242a16.221,16.221,0,0,0-1.759,1.313,9.049,9.049,0,0,1-3.886,1.406,18.151,18.151,0,0,1-6.957-.461c-.409-.082-.828-.126-1.226-.242a1.7,1.7,0,0,1-1.222-2.362c.233-.715.366-1.4-.515-1.843a1,1,0,0,1-.42-.727,9.509,9.509,0,0,1,.071-2.087,1.14,1.14,0,0,1,.658-.765c.185-.056.645.293.752.554.836,2.052,2.486,2.818,4.545,2.991a.575.575,0,0,1,.352.1,1.007,1.007,0,0,0,1.678-.017.543.543,0,0,1,.356-.1c2.9-.006,5.81,0,8.793,0" transform="translate(-40.706 -55.688)" fill="#fff"/>
    <path id="Path_139" data-name="Path 139" d="M165.828,168.378a3.425,3.425,0,0,1-.683.97c-.129.094-.68-.158-.846-.39-.9-1.263-1.773-2.546-2.583-3.867a14.218,14.218,0,0,1-1.328-4.643,8.3,8.3,0,0,0-1.865-3.853c-.311-.346-.585-.723-.9-1.066a13.122,13.122,0,0,0-1.985-2.074,10.936,10.936,0,0,0-2.389-.91,20.733,20.733,0,0,1-2.909-1.213,1.716,1.716,0,0,1-.5-1.338c.021-.685.645-.6,1.147-.576,1.222.047,2.454.009,3.662.158a4.237,4.237,0,0,1,1.728.762,8.368,8.368,0,0,1,2.249,1.812,29.631,29.631,0,0,1,3.136,5.19,60.369,60.369,0,0,1,1.866,6.034,20.768,20.768,0,0,0,.9,2.078l1.3,2.928" transform="translate(-40.092 -39.974)" fill="#fff"/>
  </g>
</svg>
