<svg id="Group_28" data-name="Group 28" xmlns="http://www.w3.org/2000/svg" xmlns:xlink="http://www.w3.org/1999/xlink" width="381.313" height="309.576" viewBox="0 0 381.313 309.576">
  <defs>
    <clipPath id="clip-path">
      <rect id="Rectangle_37" data-name="Rectangle 37" width="381.313" height="309.576" fill="none"/>
    </clipPath>
  </defs>
  <g id="Group_27" data-name="Group 27" clip-path="url(#clip-path)">
    <path id="Path_159" data-name="Path 159" d="M127.169,261.263c-.486,0-.56.144-.56.557v31.54c0,.413.143.583.582.583h1.29a1.208,1.208,0,0,0,1.264-1.243V278.624h2.7V292.7a1.208,1.208,0,0,0,1.264,1.243H135c.439,0,.582-.17.582-.583V261.82c0-.413-.074-.557-.56-.557h-1.36a1.189,1.189,0,0,0-1.216,1.216V276h-2.7V262.479a1.2,1.2,0,0,0-1.216-1.216Z" transform="translate(-21.056 -43.45)" fill="#b2aca5"/>
    <path id="Path_160" data-name="Path 160" d="M159.073,261.263a1.208,1.208,0,0,0-1.242,1.216v30.761c0,.486.218.7.682.7h1.75c.486,0,.7-.218.7-.7V261.82c0-.413-.069-.557-.556-.557Z" transform="translate(-26.249 -43.45)" fill="#b2aca5"/>
    <path id="Path_161" data-name="Path 161" d="M183.953,293.943a1.219,1.219,0,0,0,1.238-1.191V280.4h1.385a1.238,1.238,0,0,1,1.411,1.237v11.116a1.217,1.217,0,0,0,1.216,1.191h1.337c.464,0,.586-.148.586-.582V281.615a2.416,2.416,0,0,0-1.532-2.458,3.417,3.417,0,0,0,1.532-3.16V265.176c0-1.992-1.411-3.912-4.5-3.912h-4.012c-.464,0-.56.143-.56.582v31.515c0,.434.1.582.56.582Zm2.623-29.983a1.252,1.252,0,0,1,1.411,1.242v10.746c0,.825-.291,1.75-1.29,1.75h-1.506V263.96Z" transform="translate(-30.277 -43.45)" fill="#b2aca5"/>
    <path id="Path_162" data-name="Path 162" d="M213.838,282.586c-.364,0-.534.148-.534.486v7.343c0,2.214,1.7,3.89,4.52,3.89s4.551-1.676,4.551-3.89c0-11.186-5.958-16.778-5.958-25.724a1.42,1.42,0,0,1,2.818,0v7c0,.682.682.951,1.168.951h1.411c.364,0,.56-.169.56-.486v-7.586c0-2.188-1.777-3.891-4.6-3.891-2.749,0-4.5,1.7-4.5,3.891,0,10.7,5.958,16.118,5.958,25.749,0,.634-.439,1.216-1.411,1.216a1.225,1.225,0,0,1-1.385-1.216v-6.809c0-.655-.7-.925-1.168-.925Z" transform="translate(-35.47 -43.353)" fill="#b2aca5"/>
    <path id="Path_163" data-name="Path 163" d="M253.719,280.081c0-.291-.169-.46-.56-.46h-1.411c-.46,0-1.168.269-1.168.925v9.774a1.208,1.208,0,0,1-1.385,1.216c-.973,0-1.411-.582-1.411-1.216V264.693a1.259,1.259,0,0,1,1.39-1.242,1.287,1.287,0,0,1,1.433,1.242v9.8c0,.659.681.925,1.168.925h1.411c.365,0,.534-.169.534-.486V264.571c0-2.167-1.728-3.869-4.5-3.891-2.8,0-4.572,1.7-4.572,3.891v25.844c0,2.214,1.728,3.89,4.5,3.89,2.8,0,4.572-1.676,4.572-3.89Z" transform="translate(-40.687 -43.353)" fill="#b2aca5"/>
    <path id="Path_164" data-name="Path 164" d="M276.549,261.263c-.486,0-.56.144-.56.557v31.54c0,.413.143.583.582.583h1.29a1.208,1.208,0,0,0,1.264-1.243V278.624h2.7V292.7a1.208,1.208,0,0,0,1.264,1.243h1.29c.439,0,.582-.17.582-.583V261.82c0-.413-.074-.557-.56-.557h-1.36a1.189,1.189,0,0,0-1.216,1.216V276h-2.7V262.479a1.2,1.2,0,0,0-1.216-1.216Z" transform="translate(-45.899 -43.45)" fill="#b2aca5"/>
    <path id="Path_165" data-name="Path 165" d="M307.155,293.36c0,.413.1.583.56.583h6.148c.364,0,.56-.218.56-.634v-.461c0-1.067-.509-1.606-1.433-1.606h-2.7V262.453a1.215,1.215,0,0,0-1.237-1.19h-1.337c-.464,0-.56.144-.56.583Z" transform="translate(-51.082 -43.45)" fill="#b2aca5"/>
    <path id="Path_166" data-name="Path 166" d="M341.413,263.96c.9,0,1.433-.56,1.433-1.6v-.464c0-.413-.191-.629-.556-.629h-6.153c-.464,0-.56.143-.56.582v31.515c0,.46.1.582.7.582h6.009c.365,0,.556-.218.556-.634v-.46c0-1.068-.534-1.607-1.433-1.607h-2.7V279.11h2.241c.9,0,1.433-.56,1.433-1.607v-.487c0-.386-.2-.608-.56-.608h-3.114V263.96Z" transform="translate(-55.809 -43.45)" fill="#b2aca5"/>
    <path id="Path_167" data-name="Path 167" d="M365.651,261.263a1.208,1.208,0,0,0-1.242,1.216v30.761c0,.486.218.7.682.7h1.75c.486,0,.7-.218.7-.7V261.82c0-.413-.069-.557-.556-.557Z" transform="translate(-60.604 -43.45)" fill="#b2aca5"/>
    <path id="Path_168" data-name="Path 168" d="M388.2,261.263c-.364,0-.56.217-.56.63v.464c0,1.068.539,1.6,1.437,1.6h1.555v29.3c0,.487.169.682.655.682h1.8c.46,0,.681-.2.681-.682v-29.3H395.2c.9,0,1.433-.534,1.433-1.6v-.464c0-.414-.191-.63-.556-.63Z" transform="translate(-64.467 -43.45)" fill="#b2aca5"/>
    <path id="Path_169" data-name="Path 169" d="M423.68,263.96c.9,0,1.433-.56,1.433-1.6v-.464c0-.413-.192-.629-.557-.629H418.4c-.465,0-.56.143-.56.582v31.515c0,.46.1.582.7.582h6.008c.365,0,.557-.218.557-.634v-.46c0-1.068-.535-1.607-1.433-1.607h-2.7V279.11h2.242c.9,0,1.432-.56,1.432-1.607v-.487c0-.386-.2-.608-.559-.608h-3.115V263.96Z" transform="translate(-69.491 -43.45)" fill="#b2aca5"/>
    <path id="Path_170" data-name="Path 170" d="M448.49,293.942a1.193,1.193,0,0,0,1.264-1.242l-.439-18.966,3.139,19.141a1.26,1.26,0,0,0,1.264,1.068h1.29c.439,0,.582-.169.582-.582V261.819c0-.413-.074-.556-.56-.556H453.67a1.175,1.175,0,0,0-1.216,1.216l.439,18.966-3.161-19.14a1.2,1.2,0,0,0-1.195-1.042h-1.359c-.486,0-.56.143-.56.556V293.36c0,.413.143.582.582.582Z" transform="translate(-74.276 -43.45)" fill="#b2aca5"/>
    <path id="Path_171" data-name="Path 171" d="M126.849,332.32c0,.208.048.278.265.278h1.867a1.927,1.927,0,0,0,2.188-1.863v-4.5a1.851,1.851,0,0,0-.548-1.563,2.033,2.033,0,0,0,.548-1.689V318.9a1.907,1.907,0,0,0-2.145-1.863h-1.911c-.217,0-.265.07-.265.278Zm2.21-7.026c.591,0,.617.556.617.947v4.481a.6.6,0,0,1-.673.59h-.66v-6.018Zm-.716-6.969H129a.6.6,0,0,1,.673.59v4.19c0,.4-.026.947-.617.947h-.716Z" transform="translate(-21.096 -52.726)" fill="#959595"/>
    <path id="Path_172" data-name="Path 172" d="M140.251,317.041a.574.574,0,0,0-.59.578v14.646c0,.23.1.334.325.334h.834c.23,0,.334-.1.334-.334V317.306c0-.2-.034-.265-.264-.265Z" transform="translate(-23.227 -52.726)" fill="#959595"/>
    <path id="Path_173" data-name="Path 173" d="M149.086,330.9a2.189,2.189,0,0,0,4.329,0V318.629a2.191,2.191,0,0,0-4.329,0Zm1.494-12.228c0-.3.2-.586.673-.586a.593.593,0,0,1,.669.586v12.193a.585.585,0,0,1-.659.59c-.474,0-.682-.278-.682-.59Z" transform="translate(-24.794 -52.682)" fill="#959595"/>
    <path id="Path_174" data-name="Path 174" d="M162.4,327.468a.557.557,0,0,0-.556.59v.487c0,.243.139.278.278.278h2.744a.607.607,0,0,0,.578-.673v-.426c0-.221-.069-.256-.265-.256Z" transform="translate(-26.916 -54.46)" fill="#959595"/>
    <path id="Path_175" data-name="Path 175" d="M173.726,332.32c0,.208.048.278.265.278h1.867a1.927,1.927,0,0,0,2.188-1.863v-4.5a1.851,1.851,0,0,0-.548-1.563,2.033,2.033,0,0,0,.548-1.689V318.9a1.907,1.907,0,0,0-2.145-1.863h-1.911c-.217,0-.265.07-.265.278Zm2.21-7.026c.591,0,.617.556.617.947v4.481a.6.6,0,0,1-.673.59h-.66v-6.018Zm-.716-6.969h.66a.6.6,0,0,1,.673.59v4.19c0,.4-.026.947-.617.947h-.716Z" transform="translate(-28.892 -52.726)" fill="#959595"/>
    <path id="Path_176" data-name="Path 176" d="M186.068,332.333v.07c0,.138.048.2.243.2h.7a.56.56,0,0,0,.569-.556l.138-2.106h1.3l.138,2.106a.559.559,0,0,0,.578.556h.708c.2,0,.23-.057.23-.2v-.07L189.4,317.366c-.026-.278-.165-.325-.443-.325h-1.168c-.265,0-.43.048-.452.325Zm1.711-3.634.59-9.47.591,9.47Z" transform="translate(-30.945 -52.726)" fill="#959595"/>
    <path id="Path_177" data-name="Path 177" d="M199.046,317.041c-.217,0-.265.069-.265.278v13.648a1.948,1.948,0,0,0,2.176,1.854,1.929,1.929,0,0,0,2.145-1.854V317.319c0-.208-.061-.278-.278-.278h-.638a.578.578,0,0,0-.578.569v13.309c0,.313-.2.582-.673.582a.576.576,0,0,1-.66-.582V317.61a.581.581,0,0,0-.59-.569Z" transform="translate(-33.059 -52.726)" fill="#959595"/>
    <path id="Path_178" data-name="Path 178" d="M214.372,318.326c.429,0,.686-.265.686-.764v-.221c0-.2-.1-.3-.269-.3h-2.927c-.221,0-.269.07-.269.278v15c0,.222.048.278.339.278h2.857c.173,0,.269-.1.269-.3v-.221c0-.509-.257-.764-.686-.764h-1.286v-5.775h1.069c.426,0,.681-.269.681-.764v-.234c0-.183-.09-.287-.264-.287h-1.486v-5.927Z" transform="translate(-35.189 -52.726)" fill="#959595"/>
    <path id="Path_179" data-name="Path 179" d="M224.088,332.6a.581.581,0,0,0,.59-.569V326.15h.66a.591.591,0,0,1,.673.591v5.288a.579.579,0,0,0,.578.569h.639c.217,0,.278-.07.278-.278v-5.592a1.152,1.152,0,0,0-.729-1.168,1.636,1.636,0,0,0,.729-1.507V318.9a1.9,1.9,0,0,0-2.145-1.863h-1.911c-.217,0-.264.07-.264.278v15c0,.208.048.278.264.278Zm1.251-14.273a.6.6,0,0,1,.673.59v5.116c0,.4-.138.834-.616.834h-.717v-6.539Z" transform="translate(-37.117 -52.726)" fill="#959595"/>
    <path id="Path_180" data-name="Path 180" d="M236.845,332.6a.566.566,0,0,0,.6-.59l-.208-9.027,1.494,9.11a.6.6,0,0,0,.6.508h.612c.208,0,.278-.083.278-.278V317.305c0-.2-.034-.264-.264-.264h-.652a.556.556,0,0,0-.577.577l.208,9.032-1.507-9.11a.568.568,0,0,0-.564-.5h-.651c-.23,0-.265.069-.265.264v15.016c0,.2.07.278.278.278Z" transform="translate(-39.241 -52.726)" fill="#959595"/>
    <path id="Path_181" data-name="Path 181" d="M248.949,317.041c-.23,0-.265.069-.265.265v15.015c0,.2.07.278.278.278h.612a.573.573,0,0,0,.6-.59v-6.7h1.286v6.7a.573.573,0,0,0,.6.59h.612c.208,0,.278-.083.278-.278V317.306c0-.2-.034-.265-.264-.265h-.652a.563.563,0,0,0-.577.578v6.434h-1.286v-6.434a.571.571,0,0,0-.578-.578Z" transform="translate(-41.358 -52.726)" fill="#959595"/>
    <path id="Path_182" data-name="Path 182" d="M261.413,330.9a2.189,2.189,0,0,0,4.329,0V318.629a2.191,2.191,0,0,0-4.329,0Zm1.494-12.228c0-.3.2-.586.673-.586a.593.593,0,0,1,.669.586v12.193a.585.585,0,0,1-.659.59c-.474,0-.682-.278-.682-.59Z" transform="translate(-43.475 -52.682)" fill="#959595"/>
    <path id="Path_183" data-name="Path 183" d="M275.692,324.253v-5.927h1.286c.439,0,.681-.257.681-.765v-.222c0-.2-.091-.3-.264-.3h-2.931c-.217,0-.265.069-.265.278V332.3c0,.217.048.3.265.3h.639a.58.58,0,0,0,.59-.569v-6.491h1.064c.443,0,.686-.257.686-.765v-.222c0-.2-.1-.3-.269-.3Z" transform="translate(-45.601 -52.726)" fill="#959595"/>
    <path id="Path_184" data-name="Path 184" d="M295.514,315.582a.583.583,0,0,0-.59.578v17.112c0,.148.034.278.278.278h.634a.55.55,0,0,0,.582-.556V315.847c0-.2-.034-.265-.269-.265Z" transform="translate(-49.048 -52.484)" fill="#959595"/>
    <path id="Path_185" data-name="Path 185" d="M315.411,332.6a.581.581,0,0,0,.59-.569V325.3h.5l1.042,6.739a.675.675,0,0,0,.682.556h.694c.174,0,.222-.035.222-.139a.435.435,0,0,0-.013-.126l-1.2-7.62,1.2-7.408a.432.432,0,0,0,.013-.126c0-.1-.048-.138-.222-.138h-.694a.691.691,0,0,0-.682.555l-1.033,6.47H316V317.61a.58.58,0,0,0-.59-.569h-.639c-.217,0-.264.069-.264.278v15c0,.208.048.278.264.278Z" transform="translate(-52.305 -52.726)" fill="#959595"/>
    <path id="Path_186" data-name="Path 186" d="M327.292,332.321c0,.2.048.278.265.278h2.93c.174,0,.265-.1.265-.3v-.222c0-.508-.243-.764-.682-.764h-1.285v-13.7a.582.582,0,0,0-.591-.569h-.638c-.218,0-.265.069-.265.278Z" transform="translate(-54.431 -52.726)" fill="#959595"/>
    <path id="Path_187" data-name="Path 187" d="M341.494,318.326c.43,0,.686-.265.686-.764v-.221c0-.2-.1-.3-.269-.3h-2.926c-.222,0-.269.07-.269.278v15c0,.222.048.278.338.278h2.857c.173,0,.269-.1.269-.3v-.221c0-.509-.256-.764-.686-.764h-1.286v-5.775h1.069c.425,0,.681-.269.681-.764v-.234c0-.183-.091-.287-.264-.287h-1.486v-5.927Z" transform="translate(-56.331 -52.726)" fill="#959595"/>
    <path id="Path_188" data-name="Path 188" d="M350.924,317.041a.575.575,0,0,0-.591.578v14.646c0,.23.1.334.325.334h.834c.23,0,.334-.1.334-.334V317.306c0-.2-.034-.265-.264-.265Z" transform="translate(-58.263 -52.726)" fill="#959595"/>
    <path id="Path_189" data-name="Path 189" d="M360.649,332.6a.566.566,0,0,0,.6-.59l-.208-9.027,1.494,9.11a.6.6,0,0,0,.6.508h.612c.208,0,.278-.083.278-.278V317.305c0-.2-.034-.264-.264-.264h-.652a.556.556,0,0,0-.577.577l.208,9.032-1.507-9.11a.568.568,0,0,0-.564-.5h-.651c-.23,0-.265.069-.265.264v15.016c0,.2.07.278.278.278Z" transform="translate(-59.831 -52.726)" fill="#959595"/>
    <path id="Path_190" data-name="Path 190" d="M372.046,332.333v.07c0,.138.048.2.243.2h.7a.56.56,0,0,0,.569-.556l.138-2.106H375l.138,2.106a.559.559,0,0,0,.578.556h.708c.2,0,.23-.057.23-.2v-.07l-1.272-14.967c-.026-.278-.165-.325-.443-.325H373.77c-.265,0-.43.048-.452.325Zm1.711-3.634.59-9.47.591,9.47Z" transform="translate(-61.874 -52.726)" fill="#959595"/>
    <path id="Path_191" data-name="Path 191" d="M385.663,332.6a.581.581,0,0,0,.59-.569V326.15h.66a.591.591,0,0,1,.673.591v5.288a.579.579,0,0,0,.578.569h.639c.217,0,.278-.07.278-.278v-5.592a1.152,1.152,0,0,0-.729-1.168,1.636,1.636,0,0,0,.729-1.507V318.9a1.9,1.9,0,0,0-2.145-1.863h-1.911c-.217,0-.264.07-.264.278v15c0,.208.047.278.264.278Zm1.251-14.273a.6.6,0,0,1,.673.59v5.116c0,.4-.138.834-.616.834h-.717v-6.539Z" transform="translate(-63.989 -52.726)" fill="#959595"/>
    <path id="Path_192" data-name="Path 192" d="M397.53,332.321c0,.2.048.278.265.278h2.93c.174,0,.265-.1.265-.3v-.222c0-.508-.243-.764-.682-.764h-1.285v-13.7a.582.582,0,0,0-.591-.569H397.8c-.218,0-.265.069-.265.278Z" transform="translate(-66.112 -52.726)" fill="#959595"/>
    <path id="Path_193" data-name="Path 193" d="M132.234,355.3a2.88,2.88,0,0,0-2.835-3.17h-2.753V363.8H129.4a2.88,2.88,0,0,0,2.835-3.17Zm-4.755,7.733V352.9H129.4a2.129,2.129,0,0,1,2,2.4v5.332a2.129,2.129,0,0,1-2,2.4Z" transform="translate(-21.062 -58.562)" fill="#959595"/>
    <path id="Path_194" data-name="Path 194" d="M140.266,361.936a1.782,1.782,0,0,1-1.8,1.95,1.889,1.889,0,0,1-1.867-2.115V360.5h4.419v-1.9a2.481,2.481,0,0,0-2.553-2.666,2.576,2.576,0,0,0-2.618,2.831v3a2.576,2.576,0,0,0,2.618,2.831,2.48,2.48,0,0,0,2.553-2.666Zm0-2.149H136.6v-1.02a1.889,1.889,0,0,1,1.867-2.114,1.781,1.781,0,0,1,1.8,1.949Z" transform="translate(-22.592 -59.195)" fill="#959595"/>
    <path id="Path_195" data-name="Path 195" d="M145.339,355.534h-.751v8.337h.751Zm0-3h-.751V353.7h.751Z" transform="translate(-24.046 -58.629)" fill="#959595"/>
    <path id="Path_196" data-name="Path 196" d="M153.415,364.437V358.6a2.446,2.446,0,0,0-2.4-2.666,2.3,2.3,0,0,0-2.115,1.133l-.269-.968h-.382v8.337H149v-5.671c0-1.116.534-2.115,1.885-2.115,1.333,0,1.784.916,1.784,1.95v5.836Z" transform="translate(-24.655 -59.195)" fill="#959595"/>
    <path id="Path_197" data-name="Path 197" d="M166.9,352.133h-.834v8.836a2.089,2.089,0,1,1-4.168,0v-8.836h-.834v8.836a2.919,2.919,0,1,0,5.836,0Z" transform="translate(-26.787 -58.562)" fill="#959595"/>
    <path id="Path_198" data-name="Path 198" d="M171.5,364.453v-5.5c0-1.168.534-2.2,1.884-2.2h.4v-.716h-.269a2.274,2.274,0,0,0-2.084,1.133l-.3-1.05h-.382v8.337Z" transform="translate(-28.397 -59.211)" fill="#959595"/>
    <path id="Path_199" data-name="Path 199" d="M176.819,363.638V351.133l-.751.134v12.371Z" transform="translate(-29.281 -58.396)" fill="#959595"/>
    <path id="Path_200" data-name="Path 200" d="M184.5,364.437v-6a2.358,2.358,0,0,0-2.454-2.5,2.432,2.432,0,0,0-2.466,2.666h.751a1.745,1.745,0,0,1,1.715-1.95,1.658,1.658,0,0,1,1.7,1.785v1.034l-1.919.329c-1.368.218-2.5.886-2.5,2.471a2.43,2.43,0,0,0,4.5,1.168l.282,1Zm-.751-2.5a1.8,1.8,0,0,1-1.954,1.919,1.509,1.509,0,0,1-1.715-1.567c0-1.151.881-1.585,1.867-1.754l1.8-.3Z" transform="translate(-29.823 -59.195)" fill="#959595"/>
    <path id="Path_201" data-name="Path 201" d="M193.336,364.47v-8.337h-.751V361.8c0,1.116-.534,2.115-1.884,2.115-1.333,0-1.785-.916-1.785-1.95v-5.836h-.751v5.836a2.449,2.449,0,0,0,2.4,2.666,2.263,2.263,0,0,0,2.1-1.116l.287.951Z" transform="translate(-31.293 -59.228)" fill="#959595"/>
    <path id="Path_202" data-name="Path 202" d="M202.464,357.968a2.613,2.613,0,0,0-2.619-2.831,2.261,2.261,0,0,0-2.118,1.233c.069-.9.152-1.819.152-2.735v-2.5l-.751.134v12.371h.382l.269-.969a2.256,2.256,0,0,0,2.067,1.134,2.6,2.6,0,0,0,2.619-2.831Zm-.751,3c0,1.116-.469,2.114-1.9,2.114s-1.932-1-1.932-2.114v-3a1.856,1.856,0,0,1,1.932-2.115c1.433,0,1.9,1.016,1.9,2.115Z" transform="translate(-32.784 -58.396)" fill="#959595"/>
    <path id="Path_203" data-name="Path 203" d="M218.9,364.437V358.6c0-1.433-.734-2.666-2.236-2.666a2.069,2.069,0,0,0-2.015,1.333,2.052,2.052,0,0,0-1.984-1.333A2.075,2.075,0,0,0,210.782,357l-.252-.9h-.382v8.337h.751V358.6a1.716,1.716,0,0,1,1.715-1.95c1.186,0,1.537.9,1.537,1.95v5.836h.747V358.6a1.719,1.719,0,0,1,1.719-1.95c1.186,0,1.533.9,1.533,1.95v5.836Z" transform="translate(-34.949 -59.195)" fill="#959595"/>
    <path id="Path_204" data-name="Path 204" d="M224.119,355.534h-.751v8.337h.751Zm0-3h-.751V353.7h.751Z" transform="translate(-37.148 -58.629)" fill="#959595"/>
    <path id="Path_205" data-name="Path 205" d="M230.468,364.1v-.716h-.617c-1.467,0-1.867-1.116-1.867-2.284v-4.585H230.8v-.669h-2.818v-1.915l-.5.082v.417c0,1.116-.434,1.585-1.416,1.585v.5h1.164V361.1c0,1.7.885,3,2.618,3Z" transform="translate(-37.597 -58.862)" fill="#959595"/>
    <path id="Path_206" data-name="Path 206" d="M243.622,363.8V352.133h-.834v5.436h-4.168v-5.436h-.834V363.8h.834v-5.436h4.168V363.8Z" transform="translate(-39.546 -58.562)" fill="#959595"/>
    <path id="Path_207" data-name="Path 207" d="M249.247,353.034H248.5v1.5h.751Zm2.5,0H251v1.5h.751Zm1.034,5.167a2.669,2.669,0,1,0-5.336,0v3.17a2.669,2.669,0,1,0,5.336,0Zm-.751,3.17a1.92,1.92,0,1,1-3.834,0V358.2a1.92,1.92,0,1,1,3.834,0Z" transform="translate(-41.152 -58.712)" fill="#959595"/>
    <path id="Path_208" data-name="Path 208" d="M261.7,363.638v-5.671a2.579,2.579,0,0,0-2.536-2.831,2.261,2.261,0,0,0-2.118,1.233c.069-.9.152-1.819.152-2.735v-2.5l-.751.134v12.371h.751v-5.671a1.856,1.856,0,0,1,1.932-2.115c1.367,0,1.819,1.016,1.819,2.115v5.671Z" transform="translate(-42.649 -58.396)" fill="#959595"/>
    <path id="Path_209" data-name="Path 209" d="M269.705,361.936a1.781,1.781,0,0,1-1.8,1.95,1.89,1.89,0,0,1-1.867-2.115V360.5h4.42v-1.9a2.481,2.481,0,0,0-2.553-2.666,2.577,2.577,0,0,0-2.619,2.831v3A2.577,2.577,0,0,0,267.9,364.6a2.48,2.48,0,0,0,2.553-2.666Zm0-2.149h-3.669v-1.02a1.889,1.889,0,0,1,1.867-2.114,1.781,1.781,0,0,1,1.8,1.949Z" transform="translate(-44.119 -59.195)" fill="#959595"/>
    <path id="Path_210" data-name="Path 210" d="M279.194,364.437V358.6a2.446,2.446,0,0,0-2.4-2.666,2.3,2.3,0,0,0-2.115,1.133l-.269-.968h-.382v8.337h.751v-5.671c0-1.116.534-2.115,1.885-2.115,1.333,0,1.784.916,1.784,1.95v5.836Z" transform="translate(-45.573 -59.195)" fill="#959595"/>
    <path id="Path_211" data-name="Path 211" d="M284.073,356.1h2.818v-.669h-2.818v-1c0-1.186.4-2.319,1.867-2.319h.616v-.682h-.616c-1.737,0-2.619,1.3-2.619,3v1h-1.333v.669h1.333v7.586h.751Z" transform="translate(-46.897 -58.446)" fill="#959595"/>
    <path id="Path_212" data-name="Path 212" d="M290.419,363.638V351.133l-.751.134v12.371Z" transform="translate(-48.174 -58.396)" fill="#959595"/>
    <path id="Path_213" data-name="Path 213" d="M298.436,364.47v-8.337h-.751V361.8c0,1.116-.534,2.115-1.884,2.115-1.333,0-1.785-.916-1.785-1.95v-5.836h-.751v5.836a2.449,2.449,0,0,0,2.4,2.666,2.263,2.263,0,0,0,2.1-1.116l.287.951Z" transform="translate(-48.772 -59.228)" fill="#959595"/>
    <path id="Path_214" data-name="Path 214" d="M307.266,354.873a1.428,1.428,0,0,1-1.1,1.316,2.7,2.7,0,0,0-4.155,2.489,3.179,3.179,0,0,0,.686,2.067,1.726,1.726,0,0,0-.6,1.381,1.5,1.5,0,0,0,.7,1.385,3.586,3.586,0,0,0-.951,2.354,2.923,2.923,0,0,0,5.836-.052c0-2.519-2.684-2.519-3.669-2.649-.517-.07-1.181-.234-1.181-1.051a1.026,1.026,0,0,1,.417-.9,2.566,2.566,0,0,0,1.433.387,2.667,2.667,0,0,0,2.666-2.918,3.247,3.247,0,0,0-.617-1.954,2.175,2.175,0,0,0,1.286-1.85Zm-3.752,8.936a3.737,3.737,0,0,0,.434.069c1.367.148,2.983.348,2.983,1.984a2.173,2.173,0,0,1-4.334.013,3.148,3.148,0,0,1,.916-2.067m1.168-2.935a2.22,2.22,0,1,1,1.915-2.2,1.972,1.972,0,0,1-1.915,2.2" transform="translate(-50.199 -59.018)" fill="#959595"/>
    <path id="Path_215" data-name="Path 215" d="M222.93,90.441c-.285.24-.72.427-.828.73-.317.889-1.071,1.027-1.8,1.175-.231.047-.535-.178-.781-.32-.534-.309-1.045-.657-1.576-.97-.734-.432-1.049.116-1.186.642a17.1,17.1,0,0,1-3.942,6.788,18.747,18.747,0,0,1-1.606,1.473c-.182.167-.44.316-.511.525-.391,1.151-1.462,1.6-2.327,2.222a45.153,45.153,0,0,1-4.8,3.074,8.17,8.17,0,0,1-2.951.764,2.647,2.647,0,0,1-2.521-2.319,19.779,19.779,0,0,1,.552-6.431c.282-1.586.5-3.184.784-4.77.434-2.431.9-4.855,1.347-7.285.068-.372.088-.754.129-1.13l-.305-.091c-.569,1.463-1.229,2.9-1.686,4.4-.589,1.934-1.058,3.909-1.5,5.883-.35,1.56-.585,3.146-.865,4.722a25.915,25.915,0,0,1-2.97,8.6,12.089,12.089,0,0,1-2.762,3.336,22.68,22.68,0,0,1-6.35,3.5,72.824,72.824,0,0,1-9,2.464,16.039,16.039,0,0,1-3.028.4,2.279,2.279,0,0,1-2.627-2.519,32.114,32.114,0,0,1,.033-4.425,14.561,14.561,0,0,1,.879-2.884c.1-.309.23-.609.346-.912l-.228-.21-2.59,2.571c-1.347-1.055-1-2.41-.993-3.694a2.462,2.462,0,0,0-.267-1.12c-.344.731-.714,1.451-1.029,2.193-1.137,2.7-2.253,5.4-3.383,8.1-.474,1.134-.932,2.276-1.455,3.386a6.983,6.983,0,0,1-.945,1.427,32.139,32.139,0,0,1-2.394,2.735,7.227,7.227,0,0,1-2.128,1.482,36.893,36.893,0,0,1-5.388,1.95,24.287,24.287,0,0,1-4.5.418c-.982.056-1.973-.039-2.955.016-1.548.086-2.328-.4-2.035-2.3,1.945-.657,4.043-1.3,6.1-2.074a24.967,24.967,0,0,0,7.015-3.867c1.273-1.024,2.322-2.258,3.577-3.292a8.685,8.685,0,0,0,1.972-3.052,67.044,67.044,0,0,0,2.859-6.727,41.1,41.1,0,0,0,1.023-5.019c.279-1.345.659-2.67.9-4.022a21.7,21.7,0,0,0,.236-2.89,23.471,23.471,0,0,0-.007-2.855c-.124-1.519-.343-3.031-.522-4.546-.129-1.093-.224-2.191-.4-3.276a19.416,19.416,0,0,0-1.091-5.321,2.462,2.462,0,0,1,1.8-3.667c.863-.148,1.315.438,1.718.932a30.8,30.8,0,0,1,3.124,4.239,21.666,21.666,0,0,1,1.726,4.5,34.18,34.18,0,0,1,.935,4.454,39.442,39.442,0,0,1,.374,4.052c.1,1.982.079,3.97.208,5.95.049.755.428,1.482.55,2.24.112.686.48.716.981.531,1.652-.611,3.29-1.266,4.953-1.843a6.232,6.232,0,0,1,1.45-.165l.96,1.046c0,.2.007.614-.005,1.024,0,.109-.036.283-.106.314-1.252.567-1.542,2-2.548,2.791a26.679,26.679,0,0,0-2.365,1.938,5.417,5.417,0,0,0-.928,1.566c-.328.7-.593,1.42-.878,2.134-.153.383-.492.83-.4,1.148a27.844,27.844,0,0,0,1.343,3.646c.081.182.755.221,1.11.138a20.444,20.444,0,0,0,6.366-2.732,17.555,17.555,0,0,0,4.947-5.531,52.729,52.729,0,0,0,3.5-6.655,61.648,61.648,0,0,0,2.69-6.674c.577-1.754.805-3.622,1.208-5.434.243-1.1.549-2.178.781-3.276.375-1.777.734-3.557,1.061-5.342s.609-3.585.905-5.379c.319-1.934.566-3.882.97-5.8a19.29,19.29,0,0,1,1.183-3.776c.6-1.373,1.616-1.531,2.757-.482a6.651,6.651,0,0,1,1.231,1.794,18.116,18.116,0,0,1,2.119,9.452,1,1,0,0,1-.169.452,4.155,4.155,0,0,1,.383,1.111c0,3.546-.949,6.95-1.587,10.4-.3,1.632-.5,3.283-.812,4.911-.329,1.693-.732,3.373-1.13,5.052-.283,1.194-.685,2.364-.89,3.57a5.7,5.7,0,0,0,.248,1.741,4.537,4.537,0,0,0,3.818-1.1,17.434,17.434,0,0,0,3.569-4.369c.874-1.353,1.848-2.642,2.719-4,.451-.7.749-1.5,1.156-2.235a29.576,29.576,0,0,0,2.948-7.894c.522-2.31.939-4.646,1.525-6.939.2-.788.346-1.723,1.4-2.082.895-.3,1.722-.172,2.074.724.4,1.009,1,2.162.813,3.121-.257,1.355.027,2.669-.17,3.984-.018.112.038.234.272.38.133-.937.293-1.871.391-2.811a11.808,11.808,0,0,0,.145-2.585,56.3,56.3,0,0,0-1.008-6.5,49.322,49.322,0,0,0-5-12.332c-1.415-2.554-2.908-5.066-4.266-7.65-.955-1.817-1.732-3.727-2.609-5.587-.793-1.685-1.648-3.342-2.41-5.041-.793-1.769-1.545-3.559-2.243-5.367-.643-1.669-1.213-3.367-1.768-5.067a10.5,10.5,0,0,1-.457-2.1c-.078-.719,1.02-1.439,1.725-1.256a3.083,3.083,0,0,1,2.092,2.258,34.087,34.087,0,0,0,3.471,7.115,83.794,83.794,0,0,0,5.52,7.857c.614.792,1.062,1.714,1.685,2.5.492.62,1.153,1.105,1.7,1.685a5.827,5.827,0,0,1,.589.893l.409-.082c.078-2.889.244-5.778.2-8.665-.03-2.03-.329-4.058-.539-6.083-.228-2.2-.439-4.407-.751-6.6a56.016,56.016,0,0,1-.521-9,1.035,1.035,0,0,1,.4-.777.987.987,0,0,1,.829.143,5.906,5.906,0,0,1,2.138,2.858,18.017,18.017,0,0,1,1.348,5.567c.112,1.852.277,3.707.541,5.542.125.869.64,1.678.794,2.547.175.991.122,2.02.211,3.029.035.4.223.776.28,1.172.205,1.422.408,2.845.567,4.273.148,1.32.225,2.646.358,3.968.092.924.223,1.844.339,2.765.015.118.061.233.071.351.125,1.521.318,3.04.349,4.564a13.784,13.784,0,0,0,.967,5.157,15.513,15.513,0,0,0,1.373,2.329c.677,1.042,1.393,2.058,2.173,3.2a6.342,6.342,0,0,0,1.248-1.2c.826-1.378,1.546-2.819,2.305-4.235.91-1.7,1.767-3.431,2.742-5.092,1.042-1.777,2.12-3.542,3.321-5.214a12.28,12.28,0,0,1,4.07-3.77,3.141,3.141,0,0,1,.895-.182v2.77c-.561,1.388-1.158,2.764-1.676,4.168q-1.524,4.129-2.971,8.286c-.37,1.059-.606,2.166-1,3.216q-1.508,4.06-3.1,8.088c-1.3,3.3-2.588,6.607-3.969,9.873-.7,1.658-1.579,3.245-2.409,4.848-1.183,2.287-2.329,4.6-3.619,6.825-.852,1.473-1.93,2.815-2.9,4.22-.564.816-1.09,1.659-1.682,2.454-.373.5-.865.91-1.251,1.4-.9,1.14-1.8,2.277-2.609,3.481-.221.332-.272,1.176-.085,1.3a1.852,1.852,0,0,0,1.456.155c1.764-.659,3.47-1.472,5.228-2.146a10.691,10.691,0,0,1,2.734-.694c.883-.085,1.186.479.82,1.3-.414.929-.868,1.84-1.316,2.754-.048.1-.171.163-.263.238a32.358,32.358,0,0,1-3.025,2.468A27.965,27.965,0,0,1,220.7,110.5c-2.9,1.311-5.8,2.633-8.738,3.847-1.658.684-3.389,1.206-5.108,1.732-2.631.8-5.263,1.618-7.928,2.3-3.167.813-6.384,1.434-9.551,2.249-1.969.507-3.89,1.206-5.824,1.844-1.772.584-3.555,1.143-5.292,1.818-2.271.884-4.5,1.872-6.749,2.813-.939.393-1.884.769-2.819,1.17-1.648.709-3.257,1.53-4.946,2.123a5.441,5.441,0,0,1-5.057-.791c-.865-.644-1.822-1.183-2.634-1.892a2.4,2.4,0,0,1-.665-1.233c-.16-.715.278-1.073,1.009-.995a22.684,22.684,0,0,0,4.1.356,30.937,30.937,0,0,0,6.023-.985c2.84-.805,5.6-1.9,8.389-2.871,1.9-.66,3.8-1.286,5.681-1.994,1.7-.642,3.354-1.406,5.049-2.062,2.569-.995,5.164-1.92,7.731-2.919,2.477-.964,4.917-2.023,7.4-2.965,1.961-.744,3.968-1.365,5.948-2.06,1.617-.568,3.226-1.165,4.828-1.894-.559.1-1.126.163-1.673.3a1.719,1.719,0,0,1-2.148-.762.8.8,0,0,1-.016-.71,15.306,15.306,0,0,1,1.669-1.747c.684-.592,1.6-.891,2.1-1.732.183-.305.608-.456.878-.722.8-.785,1.554-1.619,2.375-2.382.547-.508,1.181-.921,1.77-1.385.168-.133.437-.283.452-.444.106-1.155,1.216-1.608,1.774-2.44.576-.86,1.421-1.627,2.054-2.51.737-1.027,1.419-2.093,2.123-3.146a22.261,22.261,0,0,0,2.95-4.825c.55-1.421,1.327-2.761,1.8-4.2.995-3.028,1.9-6.1,1.335-9.355-.243-1.407-.454-2.827-.815-4.205a9.161,9.161,0,0,0-1.07-2.354,19.614,19.614,0,0,0-1.536-1.957c-.092.213-.118.245-.113.27.55,2.8,1.3,5.576,1.595,8.4a47.606,47.606,0,0,1-.163,6.808,5.179,5.179,0,0,1-.241,1.218c-.451,1.548-.884,3.1-1.4,4.631-.321.951-.786,1.852-1.173,2.781s-.763,1.879-1.143,2.82" transform="translate(-23.403 -2.63)" fill="#959595"/>
    <path id="Path_216" data-name="Path 216" d="M102.193,305.921c-.184-.4-.4-.781-.549-1.189q-1.022-2.722-2.013-5.457-1.134-3.141-2.233-6.3a4.859,4.859,0,0,1-.313-1.254c-.131-2-.193-4-.336-6-.085-1.195-.291-2.381-.408-3.575-.144-1.461-.255-2.925-.375-4.389-.127-1.547-.262-3.095-.368-4.644a26.442,26.442,0,0,0-1.312-7.337c-.764-2.1-1.265-4.3-1.918-6.444-.411-1.349-.97-2.655-1.321-4.018-.594-2.309-1.619-4.5-1.777-6.936-.131-2.03-.519-4.043-.748-6.068-.2-1.781-.327-3.57-.514-5.351-.165-1.572-.476-3.136-.536-4.711q-.219-5.757-.24-11.521a19.154,19.154,0,0,1,.477-3.122c.09-.548.377-1.116-.228-1.572-.063-.048-.035-.229-.036-.348-.018-2.89-.112-5.782-.026-8.67A53.994,53.994,0,0,1,88,201.542c.266-2.009.507-4.029.925-6.009.478-2.263,1.146-4.484,1.717-6.728.421-1.656.854-3.309,1.217-4.977.374-1.721.667-3.458,1-5.187a60.494,60.494,0,0,1,1.465-6.976,3.645,3.645,0,0,0-.308-2.4,5,5,0,0,0-1.506-2.3c-1.556-1.52-3.37-2.7-4.955-4.163-.424-.39-1.153-.5-1.271-1.267-.024-.156-.569-.232-.76-.507-.34-.248-.677-.5-1.025-.739-.1-.067-.294-.06-.328-.137-.669-1.565-2.706-1.8-3.332-3.455-.16-.421-.86-.609-1.217-.992a10.838,10.838,0,0,1-.945-1.362.853.853,0,0,0-.163-.213c-1.774-1.33-2.87-3.211-4.1-4.986a7.515,7.515,0,0,0-2.335-2.409,9.75,9.75,0,0,0-3.228-1.48,3.888,3.888,0,0,0-2.9.309,2.581,2.581,0,0,0-.5,3.615c.894,1.226,1.77,2.464,2.7,3.66a7.589,7.589,0,0,0,1.105.907,1.117,1.117,0,0,1,.37.474,1.334,1.334,0,0,0,1.033,1.115,1.11,1.11,0,0,1,.589.543,10.685,10.685,0,0,0,4.344,4.313c.079.043.2.108.2.176.177,1.276,1.564,1.366,2.228,2.244a15.37,15.37,0,0,0,3.227,2.524c.958.721,1.892,1.476,2.873,2.166.947.666,1.967,1.231,2.9,1.91a10.016,10.016,0,0,1,1.624,1.521c.13.148-.032.55-.059.835-.229-.023-.462-.03-.688-.07q-.927-.163-1.848-.348a16.118,16.118,0,0,1-6.524-3.346c-1.358-1.039-2.778-2-4.1-3.082a15.57,15.57,0,0,1-1.665-1.872,1.5,1.5,0,0,0-.4-.38,9.183,9.183,0,0,1-3.973-3.9c-.073-.129-.32-.15-.43-.272-.3-.333-.581-.69-.857-1.047-.05-.065-.009-.215-.064-.257-2.113-1.627-3.471-3.879-4.971-6.01a21.562,21.562,0,0,1-1.923-2.909,5.279,5.279,0,0,1,.08-5.6,4.023,4.023,0,0,1,3.617-2.2c1.509-.015,3.02-.222,4.524-.165a14.173,14.173,0,0,1,3.516.583c3.275.987,6.115,2.9,9.123,4.452.621.321,1.312.51,1.922.849q3.84,2.127,7.647,4.318c1.357.785,2.689,1.616,4,2.479q1.659,1.093,3.232,2.315a15.56,15.56,0,0,1,1.9,1.769.842.842,0,0,1-.089.82,4.358,4.358,0,0,1-3.243.718c-.263-.044-.573-.184-.783-.1a3.382,3.382,0,0,1-2.868-.278,13.638,13.638,0,0,1-4.6-3.114,24,24,0,0,0-3.627-2.9c-1.048-.809-2.075-1.65-3.167-2.394a25.006,25.006,0,0,0-2.6-1.471c-1.66-.86-3.336-1.689-5.005-2.531l-.218.335c.84.616,1.691,1.218,2.515,1.854a14.6,14.6,0,0,1,1.2,1.075c.648.625,1.28,1.267,1.921,1.9a2.969,2.969,0,0,0,.383.335c.069.048.205.012.262.067q1.167,1.094,2.317,2.208c.04.038.041.158.07.162,1.067.126,1.382,1.236,2.206,1.675.159.085.368.111.488.231a25.07,25.07,0,0,0,1.889,1.932c.96.774,2.018,1.43,3.04,2.124.9.615,1.971,1.037,2.478,2.119.048.1.168.236.264.245,1.377.122,1.919,1.342,2.554,2.21a14.347,14.347,0,0,1,1.947,4.031,13.346,13.346,0,0,1,.244,3.153,11.327,11.327,0,0,1,.12,1.619,21.145,21.145,0,0,1-.366,2.466,10.253,10.253,0,0,0,.79,7.156c1.168,2.149,2.339,4.3,3.43,6.485.855,1.713,1.506,3.53,2.4,5.219a50.967,50.967,0,0,0,2.789,4.457c.6.89,1.3,1.7,1.983,2.578a1.441,1.441,0,0,1-1.74.589,14.443,14.443,0,0,1-4.883-2.519,45.959,45.959,0,0,0-4.81-4.233c-.568-.371-.846-1.034-1.578-1.379-1.189-.561-2.1-.426-2.323.865a46.845,46.845,0,0,0-.511,4.846c-.1,1.443.051,2.913-.149,4.338-.237,1.681-.187,3.373-.389,5.036a42.6,42.6,0,0,0-.14,4.405c-.029,1.51-.108,3.02-.2,4.528a4.083,4.083,0,0,1-.278.85,2.4,2.4,0,0,0-.177.768c.03.53.191,1.055.2,1.585.027,2.184.077,4.371,0,6.554-.075,2.248.363,4.453.444,6.69a58.309,58.309,0,0,0,.905,6.15c.265,1.832.406,3.686.748,5.5.374,1.989.878,3.957,1.39,5.917a61.423,61.423,0,0,0,3.709,10.089,13.017,13.017,0,0,1,.944,4.2c.208,2.279.211,4.578.271,6.869a5.549,5.549,0,0,1-.458,2.469,4.165,4.165,0,0,0,.282,3.766,1.776,1.776,0,0,1,.176.837c.036,2.352-.066,4.712.112,7.052.164,2.151.6,4.284.959,6.418.269,1.6.523,3.22.937,4.789.481,1.822,1.09,3.615,1.724,5.392a2.828,2.828,0,0,1-.394,2.279Z" transform="translate(-10.046 -23.3)" fill="#959595"/>
    <path id="Path_217" data-name="Path 217" d="M2.405,0c.282.639.535,1.293.85,1.915.625,1.232,1.294,2.443,1.927,3.67,1.185,2.3,2.394,4.582,3.526,6.9,1.213,2.492,2.364,5.015,3.512,7.539a18.651,18.651,0,0,0,1.51,3.49c1.369,1.842,1.863,4.083,3.057,5.992a4.084,4.084,0,0,1,.478,1.906,1.217,1.217,0,0,1-.565,1,1.332,1.332,0,0,1-1.167-.331c-.845-.991-1.57-2.083-2.362-3.12a30.1,30.1,0,0,0-2.428-2.86q4.945,13.755,9.894,27.52c.672-1.567,1.534-3.228,2.1-4.984.7-2.178,1.2-4.426,1.7-6.663a17.392,17.392,0,0,0,.205-2.663c.072-1.124.181-2.248.2-3.373a47.108,47.108,0,0,0-.56-8.337c-.234-1.408-.256-2.851-.575-4.3a20.656,20.656,0,0,0-.424,2.425c-.11,1.8-.044,3.608-.213,5.4-.161,1.712-.535,3.4-.8,5.1-.273,1.734-.461,3.486-.84,5.2a3.244,3.244,0,0,1-1.147,1.5c-.132.113-.759-.2-1.048-.445a4.991,4.991,0,0,1-1.562-3.8,11.063,11.063,0,0,1,.478-4.478,39.9,39.9,0,0,0,1.543-4.826c.367-1.561.484-3.179.713-4.772.028-.194.01-.448.124-.567.293-.3.485-.55.066-.9-.067-.056,0-.247-.048-.354-.3-.71.449-1.374-.09-2.23-.386-.612-.057-1.673-.044-2.534s.025-1.723.038-2.584a.8.8,0,0,0,0-.184c-.327-1.369.228-2.633.441-3.941.052-.315-.17-.669-.237-1.01a4.676,4.676,0,0,1-.1-.9c0-1.351-.027-2.707.067-4.053A2.661,2.661,0,0,1,21.2,3.839c1.058-1.161,2.247-1.045,2.987.96a43.737,43.737,0,0,1,1.678,6.025c.423,1.983.634,4.012.912,6.024.107.774.158,1.559.2,2.34a1.889,1.889,0,0,1-.137.594,5.268,5.268,0,0,1,.347,1.25c.031,1.29-.114,2.589,0,3.869.141,1.656.487,3.293.7,4.944.164,1.286.241,2.584.387,3.873.176,1.553.39,3.1.575,4.654.189,1.582.248,3.19.578,4.74a9.483,9.483,0,0,1-.26,4.427c-.373,1.441-1.064,2.8-1.508,4.223a50.021,50.021,0,0,0-1.55,5.673,62.45,62.45,0,0,0-.97,7.49c-.185,2.944-.1,5.905-.168,8.857-.008.319-.348.621-.4.951a3.917,3.917,0,0,0,.105,1.492c-.682,1.013-1.907,1.162-3.034,1.5-.138.042-.373.062-.444-.016a6.646,6.646,0,0,1-1.514-1.845c-.359-.977-1.169-1.4-1.837-1.984a27.559,27.559,0,0,0-2.546-1.862,20.248,20.248,0,0,0-2.262-1.451c-1.412-.717-2.855-1.379-4.316-1.993-1.1-.462-2.285-.725-3.355-1.24A8.548,8.548,0,0,1,2.909,65.67c-1.181-1.227-.4-3.784,1.2-3.993A8.831,8.831,0,0,1,8.355,62c1.819.667,3.667,1.261,5.479,1.945.6.228,1.122.675,1.711.958.611.293,1.415.719,1.9.159a2.743,2.743,0,0,0,.547-2.009c-.424-2.477-.932-4.948-1.572-7.378-.7-2.676-1.515-5.329-2.411-7.948-.939-2.742-2.048-5.426-3.055-8.144C9.893,36.728,8.863,33.86,7.827,31c-1.288-3.562-2.6-7.114-3.837-10.694-.684-1.983-1.188-4.027-1.84-6.022C1.475,12.215.719,10.177,0,8.128V0Z" fill="#959595"/>
    <path id="Path_218" data-name="Path 218" d="M74.456,32.533c2-.054,3.872-.167,5.741-.137,1.512.025,3.021.223,4.532.339.786.061,1.577.085,2.359.175,2.086.24,4.166.531,6.254.754,1.409.15,2.827.217,4.24.325,1.506.115,3.02.168,4.512.376a14.4,14.4,0,0,1,3.422.83,18.434,18.434,0,0,1,3.1,1.811,2.109,2.109,0,0,1,.246,3.154c-1.315,1.357-3.1,1.657-4.792,2.047a39.947,39.947,0,0,0-7.334,2.115,8.592,8.592,0,0,1-5,.558,47.727,47.727,0,0,0-6.577-.761,68.722,68.722,0,0,0-7.081.351,71.4,71.4,0,0,0-7.453.764,21.412,21.412,0,0,0-8.488,3.294c-.764.53-1.674.845-2.489,1.308-1.892,1.074-3.787,2.145-5.635,3.29a11.833,11.833,0,0,0-1.55,1.444,1.182,1.182,0,0,1-.534.307c-1.088.205-1.3,1.271-1.945,1.9-.87.843-1.2,2.085-2.305,2.777-.479.3-.617,1.114-.967,1.657A18.5,18.5,0,0,0,44.355,71.46a43.412,43.412,0,0,0,.144,5.191c.213,1.723.789,3.4,1.106,5.111a28.631,28.631,0,0,0,2.659,6.894c.02.043.1.056.158.084a47.032,47.032,0,0,1,.033-4.923c.238-2.263.64-4.516,1.1-6.746a49.761,49.761,0,0,1,1.493-5.593,21.588,21.588,0,0,1,1.659-3.435,6.693,6.693,0,0,1,1.072-1.15c1.447-.35,2.376.984,2.751,2.341.665,2.414,1.167,4.875,1.893,7.268a32.409,32.409,0,0,0,1.76,4.127,61.657,61.657,0,0,0,2.75,5.66c1.131,1.9,2.542,3.64,3.812,5.462.408.585.75,1.214,1.139,1.813a.743.743,0,0,0,.334.262c.538.211.714.65,1,1.124a11.03,11.03,0,0,0,2.025,2.024c.4.372.793.743,1.215,1.083a22.17,22.17,0,0,0,1.852,1.411c1.621,1.049,3.254,2.079,4.911,3.068a37.726,37.726,0,0,0,3.823,2.073,1.9,1.9,0,0,0,1.61-.14,1.362,1.362,0,0,0,.293-1.822c-.667-1.246-1.03-2.828-2.025-3.687-1.727-1.491-2.508-3.487-3.64-5.3a10.15,10.15,0,0,1-.863-2.23.9.9,0,0,1,.06-.707,10.232,10.232,0,0,1,1.2-1.377c.587-.56,1.225-.37,1.727.305a11.866,11.866,0,0,0,1.415,1.39c.066.063.185.1.213.171.447,1.179,1.554,1.773,2.418,2.527a3.687,3.687,0,0,0,2.954,1.22,1.381,1.381,0,0,0,.939-.746,24.621,24.621,0,0,0,.566-2.709c.056-.281.131-.558.2-.847a2.9,2.9,0,0,1-.2-.889c.172-1.931.33-3.866.6-5.785.359-2.584.7-5.181,1.259-7.724a16.166,16.166,0,0,1,3-6.679c.484-.612.7-1.427,1.147-2.077a19.32,19.32,0,0,1,1.857-2.3,1.764,1.764,0,0,1,2.163.306,3.7,3.7,0,0,1,.6,2.307,42.781,42.781,0,0,1-1.13,8.689c-.442,2.4-1.255,4.735-1.773,7.126-.482,2.218-.88,4.4-.093,6.735a14.576,14.576,0,0,1,.43,4.951,21.879,21.879,0,0,0,.837,6.034,60.982,60.982,0,0,0,3.711,9.532c.861,1.95,1.85,3.849,2.575,5.855a1.243,1.243,0,0,1-.322,1.007c-.128.142-.627.094-.87-.035-.9-.479-1.435-1.448-2.192-2a8.936,8.936,0,0,1-2.034-2.3,36.717,36.717,0,0,1-3.819-7.537q-1.029-2.522-2.134-5.013c-.11-.248-.433-.624-.575-.59a1.107,1.107,0,0,0-.671.6c-.434,1.117-.839,2.25-1.183,3.4a5.6,5.6,0,0,0,.654,3.907c.425.98.98,1.907,1.5,2.845.235.424.77.446,1.045,1.02a20.321,20.321,0,0,0,2.082,2.535c1.081,1.522,2.038,3.133,3.095,4.674a1.855,1.855,0,0,1,.018,2.165q-1.863-.939-3.733-1.882c-.708-.359-1.425-.705-2.112-1.1-1.938-1.122-3.865-2.264-5.792-3.407-1.2-.715-2.43-1.4-3.591-2.188-.8-.538-1.481-1.236-2.243-1.825-.274-.212-.665-.272-.942-.481-1.218-.923-2.454-1.827-3.6-2.832-.729-.638-1.277-1.478-1.979-2.153-.414-.4-1.01-.6-1.453-.974a12.689,12.689,0,0,1-2.5-2.336c-.95-1.415-2.619-1.954-3.585-3.307a18.142,18.142,0,0,0-1.762-1.956c-.133-.138-.4-.138-.568-.253-.311-.213-.6-.46-.889-.7s-.559-.509-.857-.739c-.459-.353-.936-.681-1.4-1.023a7.925,7.925,0,0,1-1.436-1.081c-1.286-1.506-2.559-3.03-3.734-4.624-1.572-2.131-1.8-4.756-2.5-7.294a14.115,14.115,0,0,0-.885,6.07,19.665,19.665,0,0,0,1.9,6.968,33.844,33.844,0,0,0,3.854,6.005c.95,1.229,2.142,2.16,3.163,3.286a28.574,28.574,0,0,0,5.8,4.305,72.364,72.364,0,0,0,6.753,3.938c1.7.873,3.326,1.892,4.994,2.831,2.55,1.437,5.146,2.8,7.651,4.313,1.943,1.172,3.714,2.634,5.675,3.77,2.333,1.351,5.2,1.9,7.923.1a9.106,9.106,0,0,1,3.529-1.261c2.384-.374,4.815-.445,7.208-.777a13.63,13.63,0,0,1,5.535.242,4.6,4.6,0,0,1,2.2,1.716c.581.788-.391,2.049-1.658,2.172a5.847,5.847,0,0,1-2.511-.144c-2.023-.754-3.819-.049-5.533.757-1.918.9-3.693,2.106-5.553,3.138a9.112,9.112,0,0,0-3.09,3.5,2.25,2.25,0,0,1-3.572.4,10.01,10.01,0,0,1-.945-1.371c-.068-.1-.1-.241-.194-.306-.779-.551-1.572-1.084-2.351-1.634-.217-.153-.393-.361-.606-.521a41.359,41.359,0,0,0-8.3-4.775c-2.3-1.01-4.669-1.852-6.949-2.9q-4.009-1.835-7.908-3.9c-1.583-.841-3.047-1.9-4.576-2.848-1.327-.82-2.7-1.568-4-2.433-1.233-.822-2.39-1.759-3.587-2.638-1.316-.965-2.657-1.9-3.953-2.887-1.359-1.04-2.671-2.14-4.015-3.2-.629-.5-1.295-.944-1.917-1.446-.2-.161-.3-.445-.475-.639a5.415,5.415,0,0,0-.672-.574c-.066-.051-.208-.012-.263-.066-.624-.624-1.239-1.256-1.852-1.89-.081-.084-.128-.26-.211-.274-1.247-.213-1.8-1.308-2.624-2.051-1.331-1.206-2.669-2.414-3.889-3.727a10.943,10.943,0,0,1-1.758-2.625,60.864,60.864,0,0,1-2.566-5.843,38.2,38.2,0,0,1-1.1-4.512c-.368-1.592-.83-3.172-1.059-4.785-.233-1.647-.216-3.326-.338-4.99-.053-.72-.218-1.433-.262-2.153a9.238,9.238,0,0,1-.018-2.752c.349-1.384.051-2.8.5-4.188.444-1.365.391-2.885.785-4.274A34.931,34.931,0,0,1,35.345,50.6a30.146,30.146,0,0,1,4.08-6.908c.608-.694.885-1.717,1.562-2.3,1.943-1.68,2.559-4.054,3.614-6.216a18.453,18.453,0,0,0,1.3-6.018,25.93,25.93,0,0,1,1.548-5.351c.658-1.831,1.431-3.627,2.259-5.387.444-.942.558-2.035,1.426-2.816.389-.348.352-1.128.665-1.61.677-1.042,1.449-2.023,2.2-3.02a13,13,0,0,1,3.8-3.06c.97-.6,1.349.061,1.931.443.645.424.3,1,.137,1.458-.342.938-.826,1.822-1.191,2.753C57.642,15.2,56.6,17.835,55.639,20.5c-.528,1.456-.935,2.958-1.358,4.45-.332,1.166-.277,1.974.83,2.676a1.611,1.611,0,0,0,1.249.222c2.185-.89,4.321-1.9,6.5-2.807,2.113-.881,4.264-1.673,6.386-2.534,2.244-.91,4.459-1.895,6.715-2.771a31.094,31.094,0,0,1,7.273-2.354c1.681-.216,3.3-.84,4.971-1.2,1.539-.333,3.095-.6,4.654-.815a23.212,23.212,0,0,1,4.118-.354,9.5,9.5,0,0,1,4.59,1.1c.508.306,1.243.821.646,1.687-.046.067-.123.173-.1.216.622,1.16-.363,1.434-1.045,1.719-2.177.909-4.406,1.7-6.585,2.6-2.266.943-4.507,1.947-6.74,2.965s-4.4,2.17-6.659,3.1A54.356,54.356,0,0,0,74.6,32.019c-.088.051-.078.27-.139.514M76.162,24.8c-.327-.077-.394-.117-.444-.1-1.921.549-3.847,1.078-5.754,1.666a16.2,16.2,0,0,0-2.314.938c-1.607.784-3.224,1.555-4.77,2.447-1.081.625-2.043,1.454-3.073,2.17-.873.606-2.012,1-2.592,1.812-.764,1.061-2.234,1.277-2.713,2.555-.895-.071-1.091.67-1.45,1.23a.679.679,0,0,1-.324.3,3.181,3.181,0,0,0-2.262,2.049.755.755,0,0,1-.416.338,2.973,2.973,0,0,0-1.762,1.843,3.546,3.546,0,0,1-.8.924c-.247.266-.5.521-.894.92-.668-.131-.409.737-.7,1.154a21.249,21.249,0,0,1-1.625,2.158,26.753,26.753,0,0,0-3.536,5.758,28.478,28.478,0,0,0-2.99,7.871,58.445,58.445,0,0,0-1.158,7.882,56.787,56.787,0,0,0,.333,7.451,21.029,21.029,0,0,0,.624,3.7c.377,1.443.912,2.845,1.394,4.261.147.431.34.847.513,1.27a.812.812,0,0,0,.318-.614c.005-2.8-.067-5.6.03-8.394.043-1.209-.423-2.509.416-3.647.074-.1-.046-.351-.091-.528a2.493,2.493,0,0,1-.2-.716c.114-1.625.231-3.251.408-4.871a23.744,23.744,0,0,1,2.248-7.133,48.682,48.682,0,0,1,2.336-4.3,11.714,11.714,0,0,1,3.136-3.908c.1-.075.133-.256.2-.387.41-.828.858-1.6,1.894-1.787a.72.72,0,0,0,.493-.371c.313-.98,1.26-1.313,1.966-1.795a16.742,16.742,0,0,1,6.165-2.722c2.3-.464,4.54-1.2,6.83-1.706,2.239-.5,4.505-.875,6.764-1.282,2.16-.39,4.321-.781,6.49-1.115,1.569-.242,3.15-.423,4.73-.573,2.187-.208,4.378-.364,6.568-.537.493-.039.995-.1,1.468-.153a21.639,21.639,0,0,1,4.205.072,3.418,3.418,0,0,0,2.228-.244c-2.327-.539-4.662-.9-7-1.21-.866-.116-1.746-.125-2.619-.185-1.354-.093-2.708-.262-4.062-.264-1.511,0-3.023.138-4.534.225-1.166.068-2.333.127-3.5.229-.9.079-1.783.236-2.678.33-1.386.146-2.776.246-4.159.405-1.251.143-2.5.341-3.744.514-1.392.194-2.79.361-4.176.593-.885.148-1.47-.232-1.451-.75.409-.449.669-.725.919-1.011.389-.445.746-.921,1.163-1.339.5-.5,1.076-.913,1.554-1.424a16.139,16.139,0,0,1,1.558-1.847c1.517-1.182,3.137-2.231,4.7-3.356q2.122-1.529,4.2-3.112c.628-.479,1.2-1.033,1.936-1.677" transform="translate(-5.306 -1.275)" fill="#959595"/>
    <path id="Path_219" data-name="Path 219" d="M233.612,248.43a24.056,24.056,0,0,1-3.776-.037c-2-.32-4.008-.1-6-.336-3.02-.363-6.039-.732-9.052-1.145-2.384-.328-4.775-.647-7.133-1.117-2.027-.4-4.025-.965-6.011-1.546s-3.983-1.206-5.924-1.945a6.171,6.171,0,0,1-2.9-1.82c-.369-.474-1.075-.671-1.527-1.1a18.949,18.949,0,0,1-3.076-4.647c-.929-1.627-1.968-3.193-3.027-4.74-.432-.629-1.15-1.07-1.556-1.712a37.939,37.939,0,0,0-3.378-4.083,11.992,11.992,0,0,0-2.983-2.092,1.445,1.445,0,0,1-.382-2.231c.709-.853,1.294-1.808,1.964-2.7.592-.784,1.1-1.672,2.264-1.765,1.466-.118,1.938.978,2.438,1.98.736,1.479,1.4,2.992,2.082,4.5.529,1.174.949,2.4,1.565,3.528.79,1.438,1.719,2.8,2.605,4.184.484.756.974,1.511,1.517,2.224.343.451.828.794,1.184,1.236.485.6.9,1.258,1.363,1.882a2.188,2.188,0,0,0,.414.384c.306.241.714.411.914.719a14.452,14.452,0,0,0,2.867,2.819,8.9,8.9,0,0,0,3.461,1.447c2.171.6,4.376,1.08,6.578,1.559q3.106.674,6.237,1.231c1.66.293,3.334.518,5.007.728.934.118,1.886.093,2.818.218,1.947.264,3.886.58,5.827.887q2.34.369,4.675.766a25.9,25.9,0,0,1,2.966.568c.413.12.735.583,1.058.928.043.047-.119.35-.244.478a2.8,2.8,0,0,1-2.563.893,1.7,1.7,0,0,0-.277,0v-.145" transform="translate(-29.357 -35.824)" fill="#959595"/>
    <path id="Path_220" data-name="Path 220" d="M172.31,189.492c-.782-1.275-1.655-2.668-2.483-4.086a.771.771,0,0,1,.054-.731,1.417,1.417,0,0,1,.95-.452,3.069,3.069,0,0,1,2.226,1.894c.65,1.251,1.295,2.507,2.018,3.715.318.531.871.916,1.241,1.422a2.814,2.814,0,0,1-.257,3.4c-.29.285-.838.308-1.431.505.5.674,1.017,1.331,1.481,2.025a3.673,3.673,0,0,1-.3,4.905c-1.023,1.033-2.644.987-4.165.208a11.557,11.557,0,0,0-3.859-1.008c-2-.237-3.771.7-5.587,1.388a11.761,11.761,0,0,1-2.774.611,1.266,1.266,0,0,1-1.272-1.45,13.326,13.326,0,0,1,1.1-2.442c.565-1,1.3-1.917,1.827-2.94.658-1.288.081-2.187-1.335-2.136a14.957,14.957,0,0,0-2.034.4c-.384.069-.669.5-1.2-.021a1.44,1.44,0,0,1-.4-1.618,4.872,4.872,0,0,1,3.2-3.408,28.765,28.765,0,0,1,3.334-.668,11.114,11.114,0,0,1,2.413-.146c2.469.174,4.932.424,7.256.631" transform="translate(-25.946 -30.637)" fill="#959595"/>
    <path id="Path_221" data-name="Path 221" d="M174.679,167.908v-1.291c1.53-.579,3.024-1.044,4.428-1.7,1.97-.92,3.9-1.937,5.793-3.009a13.05,13.05,0,0,0,1.96-1.652c.113-.1.175-.274.3-.333a7.513,7.513,0,0,0,2.918-2.83,4.6,4.6,0,0,1,2.09-1.754,4,4,0,0,0,2.113-3.3c.217-1.286-.135-2.348-2.078-1.752-2.489.764-4.918,1.726-7.363,2.627-1.227.453-2.441.941-3.647,1.446-2.073.867-4.193,1.651-6.172,2.7-.76.4-1.143,1.474-1.778,2.167a2.481,2.481,0,0,1-3.175.5,17.662,17.662,0,0,1-1.839-1.115,1.134,1.134,0,0,1,.2-1.908c.589-.365,1.1-.868,1.7-1.209,1.3-.739,2.615-1.467,3.969-2.1,2.059-.965,4.126-1.93,6.248-2.742,2.171-.83,4.4-1.518,6.629-2.185a25.6,25.6,0,0,1,4.324-1,12.977,12.977,0,0,1,5.753.227,2.711,2.711,0,0,1,1.566,3.83,28.221,28.221,0,0,1-2.208,3.647,19.21,19.21,0,0,1-1.949,1.748c-.567.577-1,1.28-1.556,1.875a11.107,11.107,0,0,1-1.82,1.713c-3.211,2.167-6.315,4.484-10.026,5.857a46.372,46.372,0,0,1-6.37,1.546" transform="translate(-27.905 -24.49)" fill="#959595"/>
    <path id="Path_222" data-name="Path 222" d="M139.083,180.023c-1.411,1.026-2.49-.05-3.542-.7a12.6,12.6,0,0,0-6.252-2.239,34.248,34.248,0,0,1-5.014-.883,7.672,7.672,0,0,1-3.957-1.738c-1.456-1.372-3.055-2.64-3.471-4.818a3.614,3.614,0,0,1,1.391-3.6c.41-.267.6-.926,1.02-1.112a11.593,11.593,0,0,1,3.722-1.264,25.653,25.653,0,0,1,3.2-.087,9.719,9.719,0,0,1,6.873,4.394c.845,1.408,1.907,2.71,2.185,4.466a12.563,12.563,0,0,0,2.324,4.679c.586.9,1.829,1.513,1.523,2.9m-7.609-6.223a14.906,14.906,0,0,0-.92-1.863c-.551-.817-1.226-1.549-1.811-2.344a4.554,4.554,0,0,0-3.186-2.218c-1.306-.138-2.611-.292-3.92-.393a1.25,1.25,0,0,0-.7.3c-1.1.786-.489,1.763-.14,2.577.514,1.2,1.767,1.62,2.854,2.115,1.131.516,2.354.825,3.512,1.29a7.473,7.473,0,0,0,4.316.538" transform="translate(-19.422 -27.201)" fill="#959595"/>
    <path id="Path_223" data-name="Path 223" d="M131.72,239.137c-.091-2.308-.21-4.4-.242-6.493a30.119,30.119,0,0,1,.168-3.908,2.968,2.968,0,0,1,1.374-2.108,15.768,15.768,0,0,0,1.273-1.3c1.02-.9,2.259-.5,3.394-.408a8.752,8.752,0,0,1,2.093.755c.165.06.446.145.517.071,1.059-1.12,2.573-.551,3.828-1.056,2.384-.959,4.88-1.644,7.336-2.421.578-.183,1.1-.433,1.729.178a.891.891,0,0,1,.118,1.4,12.127,12.127,0,0,1-4.783,3.733c-1.985.77-3.983,1.518-6.013,2.163a13.194,13.194,0,0,0-5.287,3.108,11.33,11.33,0,0,0-3.092,5.823,2.274,2.274,0,0,1-.589,1.171,1.326,1.326,0,0,1-1.156.273c-.34-.17-.5-.7-.668-.976" transform="translate(-21.865 -36.93)" fill="#959595"/>
    <path id="Path_224" data-name="Path 224" d="M171.748,212.148c.2,1.311-.169,1.884-1.388,2.552a18.464,18.464,0,0,0-2,1.494,10.3,10.3,0,0,1-4.424,1.6,20.66,20.66,0,0,1-7.919-.524c-.465-.093-.942-.143-1.4-.275a1.93,1.93,0,0,1-1.391-2.689c.265-.814.417-1.59-.586-2.1a1.137,1.137,0,0,1-.479-.827,10.825,10.825,0,0,1,.081-2.376,1.3,1.3,0,0,1,.749-.87c.211-.064.734.333.856.631.951,2.336,2.83,3.207,5.173,3.4a.654.654,0,0,1,.4.117,1.147,1.147,0,0,0,1.91-.019.618.618,0,0,1,.405-.114c3.306-.007,6.614,0,10.008,0" transform="translate(-25.301 -34.613)" fill="#959595"/>
    <path id="Path_225" data-name="Path 225" d="M168.038,171a3.9,3.9,0,0,1-.778,1.1c-.147.107-.775-.18-.963-.444-1.022-1.438-2.018-2.9-2.94-4.4-.988-1.612-1.12-3.481-1.511-5.285a9.45,9.45,0,0,0-2.123-4.386c-.353-.393-.666-.823-1.02-1.214a14.937,14.937,0,0,0-2.259-2.361,12.449,12.449,0,0,0-2.719-1.036,23.6,23.6,0,0,1-3.311-1.381,1.953,1.953,0,0,1-.57-1.523c.024-.78.734-.679,1.306-.656,1.391.053,2.793.01,4.168.18a4.823,4.823,0,0,1,1.967.867,9.525,9.525,0,0,1,2.559,2.063,33.728,33.728,0,0,1,3.569,5.908,68.716,68.716,0,0,1,2.124,6.868,23.632,23.632,0,0,0,1.028,2.365c.47,1.064.941,2.128,1.475,3.333" transform="translate(-24.92 -24.847)" fill="#959595"/>
  </g>
</svg>
