<svg id="instagram" xmlns="http://www.w3.org/2000/svg" width="32.995" height="32.995" viewBox="0 0 32.995 32.995">
  <path id="Path_141" data-name="Path 141" d="M16.5,2.972c4.4,0,4.927.016,6.666.1a7.278,7.278,0,0,1,4.96,1.8,7.231,7.231,0,0,1,1.8,4.96c.08,1.739.1,2.262.1,6.666s-.016,4.927-.1,6.666a7.314,7.314,0,0,1-1.8,4.96,7.228,7.228,0,0,1-4.96,1.8c-1.739.08-2.262.1-6.666.1s-4.927-.016-6.666-.1a7.366,7.366,0,0,1-4.96-1.8,7.271,7.271,0,0,1-1.8-4.96c-.08-1.739-.1-2.262-.1-6.666s.016-4.927.1-6.666a7.339,7.339,0,0,1,1.8-4.96,7.246,7.246,0,0,1,4.96-1.8c1.739-.08,2.262-.1,6.666-.1M16.5,0c-4.48,0-5.043.019-6.8.1a10.2,10.2,0,0,0-6.926,2.67A10.179,10.179,0,0,0,.1,9.7c-.08,1.76-.1,2.322-.1,6.8s.019,5.043.1,6.8a10.207,10.207,0,0,0,2.67,6.926A10.188,10.188,0,0,0,9.7,32.9c1.76.08,2.322.1,6.8.1s5.043-.019,6.8-.1a10.2,10.2,0,0,0,6.926-2.67A10.175,10.175,0,0,0,32.9,23.3c.08-1.76.1-2.322.1-6.8s-.019-5.043-.1-6.8a10.2,10.2,0,0,0-2.67-6.926A10.2,10.2,0,0,0,23.3.1C21.54.019,20.978,0,16.5,0Z" transform="translate(0 0)" fill="#fff"/>
  <path id="Path_142" data-name="Path 142" d="M14.309,5.838a8.471,8.471,0,1,0,8.471,8.471A8.472,8.472,0,0,0,14.309,5.838Zm0,13.971a5.5,5.5,0,1,1,5.5-5.5A5.5,5.5,0,0,1,14.309,19.809Z" transform="translate(2.188 2.188)" fill="#fff"/>
  <circle id="Ellipse_6" data-name="Ellipse 6" cx="1.98" cy="1.98" r="1.98" transform="translate(23.325 5.711)" fill="#fff"/>
</svg>
