<svg xmlns="http://www.w3.org/2000/svg" xmlns:xlink="http://www.w3.org/1999/xlink" width="117" height="149" viewBox="0 0 117 149">
  <defs>
    <clipPath id="clip-path">
      <rect id="Rectangle_18" data-name="Rectangle 18" width="117" height="149" transform="translate(-0.058 0.002)" fill="none"/>
    </clipPath>
  </defs>
  <g id="Group_17" data-name="Group 17" transform="translate(-0.208 -0.004)" opacity="0.3">
    <g id="Group_15" data-name="Group 15" transform="translate(0.267 0.002)" clip-path="url(#clip-path)">
      <path id="Path_62" data-name="Path 62" d="M184.063,55.16c-.15.127-.38.225-.436.385-.167.469-.565.542-.951.619-.122.025-.282-.094-.412-.169-.281-.163-.551-.346-.831-.511-.387-.228-.553.061-.625.338a9.015,9.015,0,0,1-2.078,3.579,9.882,9.882,0,0,1-.847.777c-.1.088-.232.167-.269.277-.206.607-.771.846-1.227,1.171a23.8,23.8,0,0,1-2.533,1.621,4.307,4.307,0,0,1-1.556.4,1.4,1.4,0,0,1-1.329-1.223,10.428,10.428,0,0,1,.291-3.391c.149-.836.264-1.679.413-2.515.229-1.282.476-2.56.71-3.841.036-.2.046-.4.068-.6l-.161-.048c-.3.771-.648,1.529-.889,2.319-.311,1.02-.558,2.061-.791,3.1-.185.822-.309,1.659-.456,2.49a13.663,13.663,0,0,1-1.566,4.532,6.374,6.374,0,0,1-1.456,1.759,11.958,11.958,0,0,1-3.348,1.847,38.4,38.4,0,0,1-4.747,1.3,8.456,8.456,0,0,1-1.6.211,1.2,1.2,0,0,1-1.385-1.328,16.93,16.93,0,0,1,.017-2.333,7.679,7.679,0,0,1,.463-1.52c.053-.163.121-.321.182-.481l-.12-.111-1.366,1.356c-.71-.556-.528-1.271-.523-1.948a1.3,1.3,0,0,0-.141-.591c-.182.385-.377.765-.542,1.156-.6,1.422-1.188,2.848-1.784,4.271-.25.6-.491,1.2-.767,1.785a3.682,3.682,0,0,1-.5.753,16.947,16.947,0,0,1-1.262,1.442,3.81,3.81,0,0,1-1.122.782,19.453,19.453,0,0,1-2.841,1.028,12.8,12.8,0,0,1-2.371.22c-.518.029-1.04-.021-1.558.008-.816.045-1.227-.21-1.073-1.212,1.025-.346,2.131-.688,3.214-1.094a13.163,13.163,0,0,0,3.7-2.039c.671-.54,1.224-1.19,1.886-1.736a4.579,4.579,0,0,0,1.04-1.609,35.349,35.349,0,0,0,1.507-3.547,21.668,21.668,0,0,0,.539-2.646c.147-.709.347-1.408.472-2.12a11.442,11.442,0,0,0,.124-1.524,12.375,12.375,0,0,0,0-1.505c-.065-.8-.181-1.6-.275-2.4-.068-.576-.118-1.155-.21-1.727a10.236,10.236,0,0,0-.575-2.806,1.3,1.3,0,0,1,.95-1.934c.455-.078.693.231.906.491a16.236,16.236,0,0,1,1.647,2.235,11.423,11.423,0,0,1,.91,2.37,18.02,18.02,0,0,1,.493,2.348,20.789,20.789,0,0,1,.2,2.136c.052,1.045.042,2.094.109,3.137.026.4.225.782.29,1.181.059.362.253.378.517.28.871-.322,1.734-.667,2.611-.972a3.286,3.286,0,0,1,.764-.087l.506.552c0,.107,0,.324,0,.54,0,.058-.019.149-.056.166-.66.3-.813,1.056-1.343,1.472a14.069,14.069,0,0,0-1.247,1.022,2.856,2.856,0,0,0-.489.826c-.173.367-.313.749-.463,1.125-.081.2-.259.437-.211.605a14.678,14.678,0,0,0,.708,1.922c.043.1.4.116.585.073a10.779,10.779,0,0,0,3.356-1.44,9.255,9.255,0,0,0,2.608-2.916,27.8,27.8,0,0,0,1.846-3.509,32.5,32.5,0,0,0,1.418-3.519c.3-.925.425-1.909.637-2.865.128-.578.289-1.148.412-1.727.2-.937.387-1.875.56-2.817s.321-1.89.477-2.836c.168-1.02.3-2.047.511-3.057A10.169,10.169,0,0,1,172,40.936c.319-.724.852-.807,1.454-.254a3.506,3.506,0,0,1,.649.946,9.551,9.551,0,0,1,1.117,4.984.525.525,0,0,1-.089.238,2.191,2.191,0,0,1,.2.586,30.2,30.2,0,0,1-.836,5.484c-.159.86-.262,1.731-.428,2.589-.174.893-.386,1.778-.6,2.664-.149.629-.361,1.247-.469,1.882a3.007,3.007,0,0,0,.131.918,2.392,2.392,0,0,0,2.013-.581,9.192,9.192,0,0,0,1.882-2.3c.461-.713.974-1.393,1.433-2.107.238-.371.4-.792.61-1.178a15.593,15.593,0,0,0,1.554-4.162c.275-1.218.495-2.45.8-3.658.106-.415.182-.909.736-1.1.472-.16.908-.091,1.094.382a3.382,3.382,0,0,1,.429,1.646c-.135.714.014,1.407-.09,2.1-.009.059.02.124.143.2.07-.494.154-.986.206-1.482a6.225,6.225,0,0,0,.076-1.363,29.682,29.682,0,0,0-.531-3.428,26,26,0,0,0-2.637-6.5c-.746-1.346-1.533-2.671-2.249-4.033-.5-.958-.913-1.965-1.375-2.946-.418-.888-.869-1.762-1.271-2.658-.418-.933-.814-1.876-1.182-2.83-.339-.88-.64-1.775-.932-2.672a5.537,5.537,0,0,1-.241-1.109c-.041-.379.538-.759.909-.662a1.626,1.626,0,0,1,1.1,1.191,17.971,17.971,0,0,0,1.83,3.751,44.184,44.184,0,0,0,2.91,4.142c.324.418.56.9.888,1.318.259.327.608.583.9.888a3.071,3.071,0,0,1,.311.471l.215-.043c.041-1.523.129-3.047.106-4.569-.016-1.07-.174-2.139-.284-3.207-.12-1.161-.231-2.323-.4-3.478a29.536,29.536,0,0,1-.275-4.744.546.546,0,0,1,.211-.41.52.52,0,0,1,.437.075,3.114,3.114,0,0,1,1.127,1.507,9.5,9.5,0,0,1,.711,2.935c.059.977.146,1.954.285,2.922.066.458.338.885.418,1.343.092.523.064,1.065.111,1.6.018.209.117.409.148.618.108.75.215,1.5.3,2.253.078.7.119,1.4.189,2.092.048.487.117.972.179,1.458.008.062.032.123.037.185.066.8.168,1.6.184,2.406a7.267,7.267,0,0,0,.51,2.719,8.177,8.177,0,0,0,.724,1.228c.357.549.734,1.085,1.146,1.689a3.344,3.344,0,0,0,.658-.632c.436-.727.815-1.486,1.215-2.233.48-.9.931-1.809,1.446-2.685.549-.937,1.118-1.867,1.751-2.749a6.474,6.474,0,0,1,2.146-1.988,1.656,1.656,0,0,1,.472-.1v1.461c-.3.732-.611,1.457-.883,2.2q-.8,2.177-1.567,4.369c-.2.558-.32,1.142-.525,1.7q-.8,2.141-1.636,4.264c-.685,1.74-1.364,3.483-2.093,5.206-.37.874-.833,1.711-1.27,2.556-.624,1.206-1.228,2.424-1.908,3.6-.449.777-1.018,1.484-1.529,2.225-.3.43-.575.875-.887,1.294-.2.264-.456.48-.66.739-.473.6-.952,1.2-1.375,1.836-.116.175-.143.62-.045.684a.976.976,0,0,0,.768.082c.93-.348,1.829-.776,2.756-1.131a5.636,5.636,0,0,1,1.442-.366c.465-.045.625.252.433.685-.218.49-.458.97-.694,1.452-.025.052-.09.086-.138.126a17.063,17.063,0,0,1-1.595,1.3,14.744,14.744,0,0,1-1.934.978c-1.529.691-3.057,1.388-4.607,2.029-.874.361-1.787.636-2.693.913-1.387.424-2.775.853-4.18,1.214-1.67.429-3.366.756-5.035,1.186-1.038.267-2.051.636-3.071.972-.934.308-1.874.6-2.79.959-1.2.466-2.373.987-3.558,1.483-.495.207-.993.405-1.486.617-.869.374-1.717.807-2.608,1.119a2.868,2.868,0,0,1-2.666-.417c-.456-.339-.961-.624-1.389-1a1.266,1.266,0,0,1-.351-.65c-.084-.377.147-.566.532-.524a11.959,11.959,0,0,0,2.162.188,16.311,16.311,0,0,0,3.175-.52c1.5-.425,2.951-1,4.423-1.514,1-.348,2.006-.678,3-1.051.9-.338,1.768-.741,2.662-1.087,1.354-.524,2.723-1.012,4.076-1.539,1.306-.508,2.592-1.066,3.9-1.563,1.034-.393,2.092-.72,3.136-1.086.853-.3,1.7-.614,2.545-1-.294.052-.593.086-.882.16a.907.907,0,0,1-1.132-.4.424.424,0,0,1-.008-.374,8.07,8.07,0,0,1,.88-.921c.36-.312.842-.47,1.109-.913.1-.161.32-.24.463-.381.422-.414.819-.854,1.252-1.256.288-.268.623-.486.933-.73.089-.07.23-.149.238-.234.056-.609.641-.848.935-1.287s.749-.858,1.083-1.323c.389-.542.748-1.1,1.12-1.658A11.75,11.75,0,0,0,185.6,52.6c.29-.749.7-1.456.949-2.217a10.125,10.125,0,0,0,.7-4.932c-.128-.742-.24-1.491-.43-2.217a4.83,4.83,0,0,0-.564-1.241,10.344,10.344,0,0,0-.81-1.032c-.048.113-.062.129-.06.142.29,1.475.684,2.94.841,4.429a25.1,25.1,0,0,1-.086,3.589,2.729,2.729,0,0,1-.127.642c-.238.816-.466,1.636-.738,2.442-.169.5-.414.977-.618,1.466s-.4.991-.6,1.487" transform="translate(-79.104 -8.865)" fill="#fff"/>
      <path id="Path_63" data-name="Path 63" d="M82.437,227.527c-.1-.209-.209-.412-.289-.627q-.539-1.435-1.062-2.877-.6-1.656-1.178-3.319a2.562,2.562,0,0,1-.165-.661c-.069-1.053-.1-2.108-.177-3.161-.045-.63-.153-1.255-.215-1.885-.076-.77-.135-1.542-.2-2.314-.067-.816-.138-1.632-.194-2.449a13.941,13.941,0,0,0-.692-3.868c-.4-1.109-.667-2.267-1.011-3.4-.217-.711-.512-1.4-.7-2.118a19.863,19.863,0,0,1-.937-3.657c-.069-1.07-.273-2.131-.394-3.2-.106-.939-.172-1.882-.271-2.821-.087-.829-.251-1.654-.283-2.484q-.115-3.036-.127-6.074a10.1,10.1,0,0,1,.251-1.646c.047-.289.2-.589-.12-.829-.033-.025-.018-.121-.019-.184-.01-1.524-.059-3.049-.014-4.571a28.462,28.462,0,0,1,.309-2.889c.14-1.059.267-2.124.488-3.168.252-1.193.6-2.364.905-3.547.222-.873.45-1.745.642-2.624.2-.907.352-1.823.53-2.735a31.893,31.893,0,0,1,.772-3.678,1.922,1.922,0,0,0-.163-1.264,2.639,2.639,0,0,0-.794-1.212c-.82-.8-1.777-1.425-2.613-2.195-.224-.206-.608-.264-.67-.668-.013-.082-.3-.122-.4-.267-.179-.131-.357-.264-.54-.39-.051-.035-.155-.032-.173-.072-.353-.825-1.427-.95-1.757-1.822-.084-.222-.453-.321-.642-.523a5.715,5.715,0,0,1-.5-.718.45.45,0,0,0-.086-.112,10.443,10.443,0,0,1-2.16-2.629,3.962,3.962,0,0,0-1.231-1.27,5.14,5.14,0,0,0-1.7-.78,2.05,2.05,0,0,0-1.527.163,1.361,1.361,0,0,0-.261,1.906c.471.646.933,1.3,1.425,1.93a4,4,0,0,0,.583.478.589.589,0,0,1,.2.25.7.7,0,0,0,.545.588.585.585,0,0,1,.311.286,5.634,5.634,0,0,0,2.29,2.274c.042.023.1.057.108.093.093.673.825.72,1.174,1.183a8.1,8.1,0,0,0,1.7,1.331c.505.38,1,.778,1.515,1.142.5.351,1.037.649,1.531,1.007a5.281,5.281,0,0,1,.856.8c.069.078-.017.29-.031.44-.121-.012-.244-.016-.363-.037q-.489-.086-.974-.184a8.5,8.5,0,0,1-3.439-1.764c-.716-.548-1.465-1.054-2.161-1.625a8.21,8.21,0,0,1-.878-.987.794.794,0,0,0-.21-.2,4.842,4.842,0,0,1-2.094-2.054c-.038-.068-.169-.079-.227-.143-.16-.176-.306-.364-.452-.552-.026-.034,0-.113-.034-.135a13.559,13.559,0,0,1-2.621-3.169,11.369,11.369,0,0,1-1.014-1.534,2.783,2.783,0,0,1,.042-2.955A2.121,2.121,0,0,1,62.76,140.2c.8-.008,1.592-.117,2.385-.087a7.472,7.472,0,0,1,1.854.307,28.97,28.97,0,0,1,4.81,2.347c.327.169.692.269,1.013.447q2.025,1.121,4.032,2.276c.716.414,1.418.852,2.108,1.307q.875.576,1.7,1.221a8.2,8.2,0,0,1,1,.933.444.444,0,0,1-.047.432,2.3,2.3,0,0,1-1.71.378c-.138-.023-.3-.1-.413-.051a1.783,1.783,0,0,1-1.512-.147,7.19,7.19,0,0,1-2.424-1.642,12.651,12.651,0,0,0-1.912-1.527c-.553-.426-1.094-.87-1.67-1.262a13.187,13.187,0,0,0-1.373-.776c-.875-.453-1.759-.891-2.639-1.334l-.115.177c.443.325.891.642,1.326.978a7.694,7.694,0,0,1,.632.567c.342.33.675.668,1.013,1a1.567,1.567,0,0,0,.2.177c.036.025.108.007.138.035q.615.577,1.222,1.164c.021.02.022.084.037.085.563.066.729.651,1.163.883.084.045.194.058.257.122a13.216,13.216,0,0,0,1,1.018c.506.408,1.064.754,1.6,1.12.477.324,1.039.547,1.306,1.117.025.054.089.124.139.129.726.064,1.012.708,1.346,1.165a7.565,7.565,0,0,1,1.026,2.125,7.036,7.036,0,0,1,.129,1.662,5.972,5.972,0,0,1,.063.854,11.148,11.148,0,0,1-.193,1.3,5.406,5.406,0,0,0,.417,3.773c.616,1.133,1.233,2.266,1.808,3.419.451.9.794,1.861,1.266,2.752a26.871,26.871,0,0,0,1.47,2.35c.314.469.688.9,1.046,1.359a.76.76,0,0,1-.917.311,7.615,7.615,0,0,1-2.574-1.328,24.228,24.228,0,0,0-2.536-2.232c-.3-.2-.446-.545-.832-.727-.627-.3-1.107-.225-1.225.456a24.7,24.7,0,0,0-.269,2.555c-.051.761.027,1.536-.079,2.287-.125.886-.1,1.778-.205,2.655a22.458,22.458,0,0,0-.074,2.323c-.015.8-.057,1.592-.1,2.387a2.153,2.153,0,0,1-.146.448,1.263,1.263,0,0,0-.093.4c.016.28.1.556.1.836.014,1.152.04,2.3,0,3.455-.04,1.185.191,2.348.234,3.527a30.742,30.742,0,0,0,.477,3.243c.14.966.214,1.943.394,2.9.2,1.049.463,2.086.733,3.119a32.385,32.385,0,0,0,1.956,5.319,6.863,6.863,0,0,1,.5,2.215c.109,1.2.111,2.414.143,3.621a2.926,2.926,0,0,1-.241,1.3,2.2,2.2,0,0,0,.149,1.985.936.936,0,0,1,.093.441c.019,1.24-.035,2.484.059,3.718.087,1.134.316,2.259.505,3.384.142.846.276,1.7.494,2.525.254.961.574,1.906.909,2.843a1.491,1.491,0,0,1-.208,1.2Z" transform="translate(-34.093 -78.523)" fill="#fff"/>
      <path id="Path_64" data-name="Path 64" d="M1.268,0c.149.337.282.682.448,1.01.33.65.682,1.288,1.016,1.935.625,1.211,1.262,2.416,1.859,3.64C5.231,7.9,5.837,9.229,6.442,10.56a9.834,9.834,0,0,0,.8,1.84c.722.971.982,2.153,1.612,3.159a2.153,2.153,0,0,1,.252,1,.642.642,0,0,1-.3.525.7.7,0,0,1-.615-.174c-.445-.523-.828-1.1-1.245-1.645a15.871,15.871,0,0,0-1.28-1.508L10.88,28.271c.354-.826.809-1.7,1.107-2.628.369-1.149.632-2.334.894-3.513a9.17,9.17,0,0,0,.108-1.4c.038-.593.1-1.185.1-1.778a24.837,24.837,0,0,0-.3-4.4c-.124-.742-.135-1.5-.3-2.266a10.89,10.89,0,0,0-.224,1.279c-.058.948-.023,1.9-.112,2.846-.085.9-.282,1.794-.424,2.691-.144.914-.243,1.838-.443,2.739a1.71,1.71,0,0,1-.6.793c-.069.06-.4-.105-.553-.235a2.632,2.632,0,0,1-.824-2,5.833,5.833,0,0,1,.252-2.361,21.036,21.036,0,0,0,.814-2.545c.193-.823.255-1.676.376-2.516.015-.1.005-.236.065-.3.155-.16.256-.29.035-.473-.035-.029,0-.13-.025-.187-.159-.374.236-.724-.047-1.176-.2-.323-.03-.882-.023-1.336s.013-.909.02-1.363a.424.424,0,0,0,0-.1,5.145,5.145,0,0,1,.233-2.078c.027-.166-.09-.353-.125-.533a2.465,2.465,0,0,1-.053-.474c0-.713-.014-1.427.035-2.137a1.4,1.4,0,0,1,.309-.8c.558-.612,1.185-.551,1.575.506a23.06,23.06,0,0,1,.885,3.177c.223,1.046.334,2.115.481,3.176.056.408.084.822.105,1.234a1,1,0,0,1-.072.313,2.777,2.777,0,0,1,.183.659c.016.68-.06,1.365,0,2.04.074.873.257,1.736.368,2.607.087.678.127,1.363.2,2.042.093.819.206,1.636.3,2.454.1.834.131,1.682.3,2.5a5,5,0,0,1-.137,2.334c-.2.76-.561,1.475-.8,2.227a26.373,26.373,0,0,0-.817,2.991,32.925,32.925,0,0,0-.511,3.949c-.1,1.552-.052,3.113-.089,4.67,0,.168-.184.327-.21.5a2.065,2.065,0,0,0,.055.787c-.36.534-1.005.613-1.6.793-.073.022-.2.033-.234-.008a3.5,3.5,0,0,1-.8-.973c-.189-.515-.616-.737-.968-1.046a14.53,14.53,0,0,0-1.342-.982,10.676,10.676,0,0,0-1.192-.765c-.745-.378-1.505-.727-2.276-1.051-.579-.244-1.2-.382-1.769-.654a4.507,4.507,0,0,1-1.293-.881,1.326,1.326,0,0,1,.634-2.1,4.656,4.656,0,0,1,2.238.171c.959.352,1.933.665,2.889,1.025.319.12.592.356.9.505s.746.379,1,.084a1.446,1.446,0,0,0,.288-1.059c-.224-1.306-.491-2.609-.829-3.89-.371-1.411-.8-2.81-1.271-4.19-.495-1.446-1.08-2.861-1.611-4.294-.558-1.506-1.1-3.018-1.648-4.529C3.447,14.464,2.754,12.591,2.1,10.7c-.36-1.046-.626-2.123-.97-3.175C.778,6.44.379,5.366,0,4.285V0Z" transform="translate(-0.238 -0.002)" fill="#fff"/>
      <path id="Path_65" data-name="Path 65" d="M54.339,20.778c1.055-.029,2.042-.088,3.027-.072.8.013,1.593.117,2.389.179.414.032.831.045,1.244.092,1.1.127,2.2.28,3.3.4.743.079,1.491.114,2.236.171.794.061,1.592.088,2.379.2a7.6,7.6,0,0,1,1.8.437,9.72,9.72,0,0,1,1.636.955,1.112,1.112,0,0,1,.13,1.663,4.7,4.7,0,0,1-2.527,1.079,21.062,21.062,0,0,0-3.867,1.115,4.53,4.53,0,0,1-2.636.294,25.164,25.164,0,0,0-3.468-.4,36.233,36.233,0,0,0-3.733.185,37.642,37.642,0,0,0-3.93.4,11.289,11.289,0,0,0-4.475,1.737c-.4.28-.883.446-1.312.69-1,.566-2,1.131-2.971,1.735a6.205,6.205,0,0,0-.817.761.623.623,0,0,1-.281.162c-.574.108-.683.67-1.025,1-.458.444-.633,1.1-1.215,1.464-.253.158-.325.587-.51.874a9.754,9.754,0,0,0-1.246,5.4,22.888,22.888,0,0,0,.076,2.737c.113.909.416,1.791.583,2.695a15.1,15.1,0,0,0,1.4,3.635c.011.022.054.029.083.044a24.8,24.8,0,0,1,.018-2.6c.126-1.193.338-2.381.581-3.557A26.236,26.236,0,0,1,42,41.311a11.382,11.382,0,0,1,.875-1.811,3.529,3.529,0,0,1,.565-.606c.763-.185,1.253.519,1.451,1.234.351,1.272.615,2.57,1,3.832a17.088,17.088,0,0,0,.928,2.176,32.507,32.507,0,0,0,1.45,2.984c.6,1,1.34,1.919,2.01,2.88.215.309.4.64.6.956a.389.389,0,0,0,.176.138c.284.111.376.343.528.593a5.815,5.815,0,0,0,1.068,1.067c.208.2.418.392.64.571a11.69,11.69,0,0,0,.976.744c.854.553,1.716,1.1,2.589,1.618a19.888,19.888,0,0,0,2.016,1.093,1,1,0,0,0,.849-.074.718.718,0,0,0,.154-.96A6.608,6.608,0,0,0,58.805,55.8a10.9,10.9,0,0,1-1.919-2.792,5.351,5.351,0,0,1-.455-1.176.472.472,0,0,1,.032-.372,5.371,5.371,0,0,1,.632-.727c.309-.3.646-.2.91.161a6.255,6.255,0,0,0,.746.733c.035.033.1.052.112.09.236.622.819.935,1.275,1.332a1.944,1.944,0,0,0,1.557.643.728.728,0,0,0,.495-.393,12.979,12.979,0,0,0,.3-1.428c.029-.148.069-.294.105-.447a1.53,1.53,0,0,1-.106-.469c.091-1.018.174-2.038.315-3.05.189-1.363.368-2.731.664-4.072a8.523,8.523,0,0,1,1.584-3.521c.255-.323.37-.753.6-1.095a10.185,10.185,0,0,1,.979-1.21.93.93,0,0,1,1.141.161,1.952,1.952,0,0,1,.317,1.216,22.556,22.556,0,0,1-.6,4.581c-.233,1.267-.662,2.5-.935,3.757a6.406,6.406,0,0,0-.049,3.551,7.685,7.685,0,0,1,.227,2.61,11.535,11.535,0,0,0,.441,3.181,32.152,32.152,0,0,0,1.956,5.025c.454,1.028.975,2.029,1.358,3.087a.655.655,0,0,1-.17.531c-.068.075-.331.05-.459-.018-.476-.252-.756-.763-1.156-1.052a4.712,4.712,0,0,1-1.073-1.215,19.358,19.358,0,0,1-2.014-3.974q-.543-1.33-1.125-2.643c-.058-.131-.228-.328-.3-.311a.585.585,0,0,0-.354.317c-.229.589-.442,1.186-.624,1.792a2.954,2.954,0,0,0,.345,2.06c.224.517.516,1.005.791,1.5.124.223.406.235.551.538A10.713,10.713,0,0,0,66,64.04c.57.8,1.074,1.652,1.632,2.464a.978.978,0,0,1,.009,1.142q-.982-.5-1.968-.993c-.373-.189-.751-.372-1.113-.582-1.022-.592-2.038-1.194-3.054-1.8-.635-.377-1.281-.74-1.893-1.153-.419-.284-.781-.651-1.183-.962-.145-.112-.351-.143-.5-.254-.642-.487-1.294-.963-1.9-1.493-.384-.336-.673-.779-1.043-1.135-.218-.209-.533-.316-.766-.513a6.677,6.677,0,0,1-1.32-1.232c-.5-.746-1.381-1.03-1.89-1.744a9.565,9.565,0,0,0-.929-1.031c-.07-.073-.211-.073-.3-.134-.164-.113-.316-.243-.469-.371s-.294-.269-.452-.39c-.242-.186-.494-.359-.74-.539a4.178,4.178,0,0,1-.757-.57c-.678-.794-1.349-1.6-1.969-2.438a11,11,0,0,1-1.318-3.846,7.442,7.442,0,0,0-.467,3.2,10.368,10.368,0,0,0,1,3.674,17.844,17.844,0,0,0,2.032,3.166c.5.648,1.129,1.139,1.668,1.732a15.065,15.065,0,0,0,3.06,2.27,38.152,38.152,0,0,0,3.56,2.076c.9.46,1.754,1,2.633,1.493,1.345.758,2.713,1.476,4.034,2.274,1.025.618,1.958,1.389,2.992,1.988a3.805,3.805,0,0,0,4.177.053,4.8,4.8,0,0,1,1.861-.665c1.257-.2,2.539-.235,3.8-.41a7.186,7.186,0,0,1,2.918.127,2.427,2.427,0,0,1,1.162.9c.306.415-.206,1.08-.874,1.145a3.083,3.083,0,0,1-1.324-.076,3.608,3.608,0,0,0-2.917.4c-1.011.476-1.947,1.11-2.928,1.654a4.8,4.8,0,0,0-1.629,1.847,1.186,1.186,0,0,1-1.883.209,5.278,5.278,0,0,1-.5-.723c-.036-.053-.054-.127-.1-.161-.411-.291-.829-.571-1.24-.862-.114-.08-.207-.19-.32-.275A21.806,21.806,0,0,0,60.427,69c-1.211-.532-2.461-.977-3.664-1.527q-2.114-.967-4.169-2.058c-.835-.444-1.607-1-2.413-1.5-.7-.433-1.425-.827-2.109-1.283-.65-.433-1.26-.927-1.891-1.39-.694-.509-1.4-1-2.084-1.522-.716-.549-1.408-1.129-2.117-1.687-.331-.262-.683-.5-1.011-.762-.105-.085-.156-.235-.251-.337a2.855,2.855,0,0,0-.354-.3c-.035-.027-.11-.006-.138-.035-.329-.329-.653-.662-.977-1-.043-.044-.067-.137-.111-.145-.658-.112-.951-.69-1.384-1.081-.7-.636-1.407-1.273-2.05-1.965a5.77,5.77,0,0,1-.927-1.384,32.042,32.042,0,0,1-1.353-3.08,20.122,20.122,0,0,1-.579-2.379c-.194-.84-.438-1.672-.558-2.523-.123-.868-.114-1.754-.178-2.631-.028-.38-.115-.756-.138-1.135a4.87,4.87,0,0,1-.009-1.451c.184-.73.027-1.476.265-2.208s.206-1.521.414-2.253A18.417,18.417,0,0,1,33.719,30.3a15.894,15.894,0,0,1,2.151-3.642c.32-.366.466-.905.824-1.214,1.025-.886,1.349-2.138,1.905-3.277A9.729,9.729,0,0,0,39.285,19a13.671,13.671,0,0,1,.816-2.821c.347-.965.754-1.912,1.191-2.84a3.919,3.919,0,0,1,.752-1.485c.2-.184.185-.595.351-.849.357-.549.764-1.067,1.158-1.592a6.856,6.856,0,0,1,2-1.614c.511-.318.711.032,1.018.234.34.223.16.526.072.768-.18.494-.436.961-.628,1.451-.545,1.389-1.092,2.778-1.6,4.181-.278.767-.493,1.56-.716,2.346a1.062,1.062,0,0,0,.437,1.411.85.85,0,0,0,.658.117c1.152-.469,2.278-1,3.426-1.48,1.114-.465,2.248-.882,3.367-1.336,1.183-.48,2.351-1,3.541-1.461a16.394,16.394,0,0,1,3.835-1.241c.886-.114,1.742-.443,2.621-.633.811-.175,1.632-.316,2.454-.43a12.238,12.238,0,0,1,2.171-.187,5.007,5.007,0,0,1,2.42.582c.268.161.655.433.341.89-.024.035-.065.091-.053.114.328.611-.191.756-.551.906-1.148.48-2.323.894-3.472,1.372-1.195.5-2.376,1.026-3.554,1.563S59.026,18.11,57.833,18.6a28.72,28.72,0,0,0-3.421,1.906c-.047.027-.041.142-.073.271m.9-4.076c-.172-.04-.207-.062-.234-.054-1.013.289-2.028.568-3.034.878a8.542,8.542,0,0,0-1.22.494c-.847.413-1.7.82-2.515,1.29-.57.33-1.077.767-1.62,1.144a5.317,5.317,0,0,0-1.367.955c-.4.56-1.178.673-1.43,1.348-.472-.038-.575.353-.764.648a.358.358,0,0,1-.171.16,1.678,1.678,0,0,0-1.192,1.08.4.4,0,0,1-.219.178,1.567,1.567,0,0,0-.929.972,1.87,1.87,0,0,1-.419.487c-.13.14-.266.275-.471.485-.352-.069-.216.389-.37.608a11.2,11.2,0,0,1-.857,1.138,14.1,14.1,0,0,0-1.864,3.036,15.014,15.014,0,0,0-1.577,4.15,30.815,30.815,0,0,0-.611,4.155,29.939,29.939,0,0,0,.176,3.928,11.087,11.087,0,0,0,.329,1.949c.2.761.481,1.5.735,2.247.077.227.179.447.27.669a.428.428,0,0,0,.168-.324c0-1.475-.035-2.952.016-4.425.022-.637-.223-1.323.219-1.923.039-.053-.024-.185-.048-.278a1.314,1.314,0,0,1-.1-.378c.06-.857.122-1.714.215-2.568a12.519,12.519,0,0,1,1.185-3.761,25.669,25.669,0,0,1,1.232-2.269,6.176,6.176,0,0,1,1.653-2.06c.055-.04.07-.135.1-.2.216-.436.452-.846,1-.942a.38.38,0,0,0,.26-.2c.165-.516.664-.692,1.036-.946a8.827,8.827,0,0,1,3.25-1.435c1.211-.245,2.394-.631,3.6-.9,1.181-.262,2.375-.461,3.566-.676,1.139-.206,2.278-.412,3.422-.588.827-.127,1.661-.223,2.494-.3,1.153-.109,2.308-.192,3.463-.283.26-.021.524-.052.774-.081a11.409,11.409,0,0,1,2.217.038,1.8,1.8,0,0,0,1.175-.129c-1.227-.284-2.458-.473-3.692-.638-.457-.061-.92-.066-1.381-.1-.714-.049-1.428-.138-2.141-.139-.8,0-1.594.073-2.391.119-.615.036-1.23.067-1.844.121-.472.042-.94.124-1.412.174-.731.077-1.464.13-2.193.214-.66.076-1.316.18-1.974.271-.734.1-1.471.19-2.2.313-.466.078-.775-.122-.765-.4.216-.237.353-.382.484-.533.205-.235.393-.486.613-.706.262-.262.567-.481.819-.751A8.509,8.509,0,0,1,49.525,21c.8-.623,1.654-1.176,2.477-1.77q1.119-.806,2.217-1.641c.331-.252.632-.545,1.021-.884" transform="translate(-18.12 -4.3)" fill="#fff"/>
      <path id="Path_66" data-name="Path 66" d="M206.623,232.819a12.684,12.684,0,0,1-1.991-.019c-1.053-.169-2.113-.051-3.161-.177-1.592-.191-3.184-.386-4.773-.6-1.257-.173-2.517-.341-3.761-.589-1.069-.213-2.122-.509-3.169-.815s-2.1-.636-3.123-1.025a3.253,3.253,0,0,1-1.528-.96c-.195-.25-.567-.354-.805-.58a10,10,0,0,1-1.622-2.45c-.49-.858-1.037-1.683-1.6-2.5-.228-.332-.606-.564-.82-.9a20,20,0,0,0-1.781-2.153,6.324,6.324,0,0,0-1.573-1.1.762.762,0,0,1-.2-1.176c.374-.45.682-.953,1.036-1.421.312-.413.582-.881,1.194-.931.773-.062,1.022.516,1.285,1.044.388.78.74,1.578,1.1,2.372.279.619.5,1.268.825,1.86.416.758.906,1.476,1.374,2.206.255.4.513.8.8,1.173.181.238.436.418.624.652.256.317.476.663.719.992a1.154,1.154,0,0,0,.218.2c.161.127.376.217.482.379a7.619,7.619,0,0,0,1.512,1.486,4.69,4.69,0,0,0,1.825.763c1.145.316,2.307.57,3.468.822q1.638.355,3.288.649c.875.155,1.758.273,2.64.384.492.062.994.049,1.486.115,1.026.139,2.049.306,3.072.468q1.234.195,2.465.4a13.662,13.662,0,0,1,1.564.3c.218.063.388.307.558.489.023.025-.063.185-.129.252a1.476,1.476,0,0,1-1.351.471.9.9,0,0,0-.146,0v-.076" transform="translate(-99.172 -120.729)" fill="#fff"/>
      <path id="Path_67" data-name="Path 67" d="M164.6,187c-.412-.672-.872-1.407-1.309-2.154a.406.406,0,0,1,.029-.385.747.747,0,0,1,.5-.238,1.618,1.618,0,0,1,1.174,1c.343.659.683,1.322,1.064,1.959.168.28.459.483.654.75a1.483,1.483,0,0,1-.135,1.793c-.153.15-.442.162-.755.266.262.356.536.7.781,1.068a1.937,1.937,0,0,1-.16,2.586,1.84,1.84,0,0,1-2.2.109,6.094,6.094,0,0,0-2.035-.531,6.284,6.284,0,0,0-2.945.732,6.2,6.2,0,0,1-1.462.322.668.668,0,0,1-.671-.764,7.028,7.028,0,0,1,.578-1.287c.3-.53.687-1.011.963-1.55.347-.679.043-1.153-.7-1.126a7.888,7.888,0,0,0-1.072.211c-.2.036-.353.265-.631-.011a.759.759,0,0,1-.21-.853,2.569,2.569,0,0,1,1.686-1.8,15.166,15.166,0,0,1,1.758-.352,5.862,5.862,0,0,1,1.272-.077c1.3.092,2.6.223,3.825.333" transform="translate(-87.674 -103.247)" fill="#fff"/>
      <path id="Path_68" data-name="Path 68" d="M171.422,158.144v-.68c.807-.306,1.594-.55,2.334-.9,1.039-.485,2.056-1.021,3.054-1.586a6.909,6.909,0,0,0,1.033-.871c.059-.052.092-.145.158-.176a3.959,3.959,0,0,0,1.538-1.492,2.429,2.429,0,0,1,1.1-.924,2.109,2.109,0,0,0,1.114-1.738c.114-.678-.071-1.238-1.1-.923-1.312.4-2.593.909-3.882,1.385-.647.239-1.287.5-1.923.763-1.093.457-2.21.87-3.254,1.423-.4.212-.6.776-.938,1.142a1.307,1.307,0,0,1-1.674.263,9.233,9.233,0,0,1-.97-.587.6.6,0,0,1,.1-1.006c.31-.193.578-.458.894-.637.686-.39,1.379-.774,2.093-1.109,1.086-.509,2.175-1.018,3.294-1.446,1.145-.437,2.32-.8,3.495-1.152a13.5,13.5,0,0,1,2.28-.528,6.835,6.835,0,0,1,3.033.12,1.429,1.429,0,0,1,.825,2.019,14.872,14.872,0,0,1-1.164,1.922,10.021,10.021,0,0,1-1.028.922c-.3.3-.529.675-.82.989a5.834,5.834,0,0,1-.96.9,25.375,25.375,0,0,1-5.286,3.088,24.378,24.378,0,0,1-3.359.814" transform="translate(-94.276 -82.531)" fill="#fff"/>
      <path id="Path_69" data-name="Path 69" d="M128.542,172.238c-.744.541-1.313-.026-1.867-.371a6.643,6.643,0,0,0-3.3-1.181,18.057,18.057,0,0,1-2.643-.465,4.045,4.045,0,0,1-2.086-.916,4.845,4.845,0,0,1-1.83-2.54,1.905,1.905,0,0,1,.734-1.9c.216-.141.316-.488.538-.586a6.113,6.113,0,0,1,1.963-.666,13.523,13.523,0,0,1,1.685-.046,5.124,5.124,0,0,1,3.624,2.316,6.628,6.628,0,0,1,1.152,2.355,6.624,6.624,0,0,0,1.225,2.467c.309.476.964.8.8,1.531m-4.012-3.281a7.858,7.858,0,0,0-.485-.982c-.291-.431-.646-.817-.955-1.236a2.4,2.4,0,0,0-1.68-1.169c-.689-.073-1.377-.154-2.067-.207a.659.659,0,0,0-.371.157c-.581.414-.258.93-.074,1.359.271.633.931.854,1.5,1.115.6.272,1.241.435,1.851.68a3.94,3.94,0,0,0,2.276.284" transform="translate(-65.691 -91.667)" fill="#fff"/>
      <path id="Path_70" data-name="Path 70" d="M131.6,231.063c-.048-1.217-.111-2.32-.127-3.423a15.878,15.878,0,0,1,.088-2.061,1.565,1.565,0,0,1,.724-1.112,8.312,8.312,0,0,0,.671-.685c.538-.475,1.191-.263,1.789-.215a4.614,4.614,0,0,1,1.1.4c.087.032.235.076.273.037.558-.591,1.356-.291,2.018-.557,1.257-.505,2.573-.867,3.868-1.276.3-.1.58-.228.912.094a.47.47,0,0,1,.062.736,6.394,6.394,0,0,1-2.522,1.968c-1.047.406-2.1.8-3.17,1.14a6.956,6.956,0,0,0-2.788,1.639,5.973,5.973,0,0,0-1.63,3.07,1.2,1.2,0,0,1-.311.617.7.7,0,0,1-.61.144c-.179-.09-.262-.371-.352-.515" transform="translate(-73.922 -124.456)" fill="#fff"/>
      <path id="Path_71" data-name="Path 71" d="M162.476,210.247c.1.691-.089.993-.732,1.345a9.737,9.737,0,0,0-1.055.788,5.43,5.43,0,0,1-2.332.843,10.892,10.892,0,0,1-4.175-.276c-.245-.049-.5-.076-.736-.145a1.018,1.018,0,0,1-.733-1.418c.14-.429.22-.838-.309-1.106a.6.6,0,0,1-.252-.436,5.706,5.706,0,0,1,.043-1.253.684.684,0,0,1,.4-.459c.111-.034.387.176.451.333a2.893,2.893,0,0,0,2.727,1.795.345.345,0,0,1,.211.062.6.6,0,0,0,1.007-.01.326.326,0,0,1,.214-.06c1.743,0,3.487,0,5.277,0" transform="translate(-85.503 -116.647)" fill="#fff"/>
      <path id="Path_72" data-name="Path 72" d="M159.435,160.789a2.055,2.055,0,0,1-.41.582c-.077.056-.408-.095-.508-.234-.539-.758-1.064-1.528-1.55-2.321a8.533,8.533,0,0,1-.8-2.786,4.982,4.982,0,0,0-1.119-2.312c-.186-.207-.351-.434-.538-.64a7.874,7.874,0,0,0-1.191-1.245,6.564,6.564,0,0,0-1.434-.546,12.44,12.44,0,0,1-1.746-.728,1.03,1.03,0,0,1-.3-.8c.013-.411.387-.358.688-.346.733.028,1.472.005,2.2.095a2.542,2.542,0,0,1,1.037.457,5.023,5.023,0,0,1,1.349,1.087A17.784,17.784,0,0,1,157,154.164a36.228,36.228,0,0,1,1.12,3.621,12.459,12.459,0,0,0,.542,1.247l.778,1.757" transform="translate(-84.217 -83.734)" fill="#fff"/>
    </g>
  </g>
</svg>
